<?xml version="1.0" standalone="no"?>
<!DOCTYPE svg PUBLIC "-//W3C//DTD SVG 20010904//EN"
 "http://www.w3.org/TR/2001/REC-SVG-20010904/DTD/svg10.dtd">
<svg version="1.0" xmlns="http://www.w3.org/2000/svg"
 width="80.000000pt" height="53.000000pt" viewBox="0 0 80.000000 53.000000"
 preserveAspectRatio="xMidYMid meet">
<metadata>
Created by potrace 1.16, written by Peter Selinger 2001-2019
</metadata>
<g transform="translate(0.000000,53.000000) scale(0.005926,-0.005889)"
fill="#000000" stroke="none">
<path d="M3149 8943 c-65 -67 -169 -191 -169 -201 0 -4 -16 -24 -35 -44 -103
-109 55 2 200 140 45 43 103 96 130 119 l50 42 -60 0 -61 1 -55 -57z"/>
<path d="M4831 8928 c-35 -40 -125 -158 -201 -263 -207 -285 -316 -393 -530
-526 -254 -158 -463 -214 -823 -222 -109 -3 -200 -7 -203 -9 -9 -10 142 -58
231 -75 62 -12 145 -17 265 -18 165 0 180 2 265 28 110 35 268 116 378 194 46
33 161 137 264 241 100 100 184 182 188 182 6 0 -10 -33 -35 -70 -9 -14 -27
-43 -39 -65 l-23 -40 42 48 c23 26 45 47 50 47 12 0 -20 -92 -63 -175 -43 -86
-137 -213 -203 -276 -123 -116 -294 -217 -439 -260 -86 -25 -266 -36 -349 -20
-33 6 -61 9 -64 7 -2 -3 40 -19 95 -37 94 -32 105 -33 258 -33 151 -1 164 1
239 27 44 16 114 44 155 64 42 19 103 46 136 60 145 61 251 143 293 228 11 22
43 121 72 220 28 99 63 218 77 264 14 47 26 89 27 95 1 6 17 47 35 91 39 94
95 180 186 288 l65 77 -143 0 -143 0 -63 -72z"/>
<path d="M5487 8975 c-99 -34 -170 -80 -248 -162 -92 -97 -139 -198 -229 -488
-154 -495 -193 -568 -434 -808 -201 -200 -386 -343 -539 -416 -108 -52 -181
-71 -302 -77 -86 -5 -114 -2 -197 19 -186 49 -339 144 -444 278 -56 71 -114
163 -114 180 0 7 -8 26 -18 43 -10 17 -17 40 -17 50 0 30 23 31 31 2 3 -14 10
-26 14 -26 5 0 11 -9 15 -20 3 -10 28 -53 55 -94 119 -182 289 -294 505 -333
89 -15 170 -11 255 14 l55 17 -79 8 c-181 20 -318 90 -477 245 -59 57 -104
103 -100 103 3 0 -2 5 -11 11 -10 5 -18 17 -18 24 0 8 -4 15 -9 15 -5 0 -11 7
-15 15 -10 27 12 16 76 -37 175 -146 300 -221 455 -275 110 -37 218 -37 328 0
44 15 91 35 105 43 l25 15 -30 -6 c-173 -38 -318 -11 -508 94 -51 28 -151 97
-222 152 -161 125 -221 164 -308 200 -74 31 -259 92 -344 115 -29 7 -72 22
-95 33 -24 11 -54 22 -68 25 -14 3 -19 3 -12 0 22 -10 12 -25 -13 -18 -17 4
-25 2 -25 -7 0 -11 -3 -11 -10 1 -9 13 -10 13 -10 0 -1 -12 -2 -12 -10 2 -9
15 -19 16 -86 5 -11 -2 -34 -12 -50 -23 -40 -28 -115 -46 -249 -60 -160 -15
-496 -95 -593 -141 -30 -13 -59 -22 -66 -20 -7 3 -13 0 -13 -7 0 -14 19 -12
112 9 33 8 78 17 100 20 22 3 46 8 53 10 6 2 12 -1 12 -8 0 -8 2 -9 8 -1 11
17 115 41 119 27 5 -14 42 -5 67 16 12 10 17 11 12 3 -7 -12 -4 -12 15 -1 13
7 29 14 34 15 6 1 35 11 65 22 87 33 142 47 260 67 163 28 277 -7 162 -50 -26
-10 -154 -62 -285 -116 -358 -149 -441 -194 -540 -295 -60 -60 -137 -177 -137
-206 0 -9 -4 -19 -9 -22 -17 -11 -34 -138 -28 -220 9 -146 96 -323 214 -437
103 -100 85 -88 -98 58 -22 18 -40 36 -41 40 0 4 -30 40 -66 78 -62 67 -65 52
-5 -25 38 -48 5 -23 -75 57 -77 78 -122 148 -152 235 -19 56 -22 83 -18 157 4
81 8 98 46 175 44 88 126 182 267 305 l60 52 -35 -7 c-48 -9 -135 -54 -231
-119 -45 -30 -83 -55 -86 -55 -16 0 -113 -106 -154 -168 -112 -170 -133 -355
-58 -510 18 -37 35 -71 37 -76 6 -12 -49 21 -113 70 -64 47 -131 132 -145 183
-35 125 19 300 120 391 71 64 93 80 215 152 72 43 135 82 142 88 7 5 16 10 22
10 5 0 12 7 15 16 3 8 10 13 15 10 5 -3 14 1 21 9 7 8 16 12 21 9 5 -3 9 0 9
5 0 6 -1 11 -3 11 -17 0 -118 -36 -137 -49 -14 -9 -54 -30 -90 -46 -36 -16
-83 -41 -105 -54 -22 -14 -56 -34 -75 -44 -121 -66 -216 -171 -245 -271 -27
-91 -17 -178 30 -272 46 -91 113 -161 254 -267 108 -80 118 -91 50 -56 -58 29
-60 16 -2 -17 26 -15 89 -51 138 -80 50 -29 142 -79 207 -112 150 -77 194
-108 293 -206 214 -213 321 -357 376 -507 97 -267 64 -602 -82 -817 -57 -84
-179 -207 -261 -262 -20 -13 -35 -27 -33 -31 2 -3 -1 -6 -8 -6 -7 0 -65 -32
-130 -72 -130 -78 -266 -131 -401 -155 -211 -38 -334 -29 -455 33 -42 22 -90
44 -106 50 -46 17 -150 101 -189 152 -52 70 -68 115 -69 199 -1 153 73 312
205 439 47 45 148 111 148 97 0 -3 -25 -31 -56 -62 -111 -110 -152 -235 -116
-352 41 -129 184 -261 285 -262 41 0 33 15 -28 50 -30 17 -67 48 -82 68 -37
51 -47 61 -40 39 13 -36 -27 -13 -59 34 -67 101 -66 229 3 331 51 76 69 94
151 148 129 86 159 94 376 97 104 2 194 7 202 11 7 4 -79 8 -191 9 -131 2
-206 -1 -211 -8 -3 -6 -19 -7 -35 -4 -17 4 -50 0 -82 -11 -54 -17 -178 -73
-187 -83 -3 -3 -18 -13 -34 -21 -16 -8 -59 -45 -95 -81 -116 -115 -191 -293
-191 -451 0 -148 69 -243 247 -340 80 -44 99 -59 106 -83 41 -141 141 -237
319 -305 51 -19 52 -19 31 -1 l-23 19 58 -4 c160 -10 289 -12 307 -4 19 7 18
9 -8 19 -35 14 -89 26 -187 42 -85 13 -154 35 -225 72 -56 28 -110 80 -101 95
3 6 36 9 72 8 210 -7 454 74 754 251 18 11 16 7 -10 -18 -151 -141 -183 -172
-170 -163 13 10 42 31 171 129 22 17 128 101 202 161 10 8 22 12 27 9 6 -3 7
0 5 7 -3 8 10 29 30 48 19 19 35 29 35 23 0 -7 -7 -18 -15 -27 -17 -17 -20
-30 -5 -21 18 11 10 -7 -11 -26 -13 -11 -19 -25 -15 -34 3 -9 2 -13 -4 -10 -5
3 -8 -3 -7 -13 1 -22 -75 -145 -140 -227 -95 -118 -110 -140 -86 -125 12 8 19
18 17 22 -3 4 -1 8 5 8 5 0 38 37 73 81 35 45 70 89 78 98 20 22 117 170 163
247 110 186 197 467 197 639 0 36 5 67 11 71 8 4 9 -1 4 -16 -5 -15 -4 -20 4
-16 8 5 9 -3 6 -27 -4 -22 -1 -38 6 -42 15 -10 31 16 19 30 -5 6 -9 20 -9 30
0 17 -5 66 -10 97 -1 4 -9 5 -18 2 -17 -5 -17 -5 0 6 21 14 24 55 3 47 -10 -4
-13 -1 -9 9 3 7 0 14 -6 14 -7 0 -10 15 -9 40 2 22 6 40 11 40 4 0 7 5 7 10 0
6 -6 10 -14 10 -8 0 -17 7 -20 16 -5 12 -2 15 10 10 13 -5 14 -4 6 7 -7 8 -9
17 -5 20 3 4 -1 7 -10 7 -11 0 -17 8 -17 25 0 14 5 25 11 25 5 0 7 -4 4 -10
-3 -5 3 -15 14 -21 10 -7 17 -19 14 -26 -3 -7 -1 -13 5 -13 6 0 8 -8 5 -19 -2
-10 3 -25 12 -35 9 -9 12 -16 7 -16 -5 0 -9 -7 -9 -15 0 -12 3 -12 16 -2 8 6
12 7 9 2 -4 -6 -3 -17 2 -25 5 -8 4 -22 -2 -33 -5 -11 -6 -17 -1 -15 4 2 19
-7 33 -20 14 -14 19 -21 11 -17 -9 5 -12 4 -7 -3 11 -18 23 -14 29 9 3 11 -5
44 -19 72 -25 55 -31 82 -14 72 12 -8 13 0 1 23 -12 21 -24 54 -25 67 -1 6 -6
19 -13 30 -6 11 -14 38 -18 59 -5 25 -14 40 -26 43 -10 3 -15 11 -12 19 3 7
-10 30 -28 49 -22 22 -34 46 -35 66 -1 24 -18 46 -80 105 -102 97 -198 161
-414 274 -223 117 -325 185 -420 280 -82 82 -121 141 -151 227 -21 62 -37 213
-22 213 5 0 17 -35 27 -77 40 -173 129 -277 364 -422 102 -63 269 -148 305
-155 48 -9 189 -126 467 -390 25 -24 40 -45 40 -56 0 -5 4 -10 9 -10 14 0 66
-92 95 -170 25 -67 53 -183 108 -435 28 -131 35 -364 14 -480 -22 -118 -60
-241 -102 -333 -19 -40 -34 -76 -34 -78 0 -3 -21 -38 -46 -77 l-46 -72 42 40
c92 89 180 252 225 420 33 122 45 352 26 486 -25 176 -116 440 -211 614 -60
111 -87 165 -121 243 -18 39 -37 72 -42 72 -6 0 -7 3 -4 6 4 4 -2 19 -12 33
-9 14 -27 45 -39 68 -27 53 -44 84 -58 103 -32 45 -119 302 -150 445 l-13 60
4 -85 c6 -129 63 -301 169 -519 20 -41 34 -77 31 -80 -15 -14 -180 177 -238
276 -65 111 -89 194 -95 321 -5 130 9 206 64 333 45 107 95 181 164 248 211
203 465 339 684 366 48 6 55 5 65 -13 8 -15 8 -22 -2 -25 -7 -4 -6 -6 4 -6 23
-1 49 -33 32 -38 -21 -7 -15 -22 7 -18 17 3 69 -32 58 -39 -109 -72 -323 -278
-362 -347 -22 -39 -22 -39 64 60 92 105 314 277 343 265 16 -6 29 -27 33 -54
2 -8 6 -25 9 -36 6 -18 -20 -49 -151 -180 -87 -88 -177 -185 -200 -216 -105
-143 -174 -438 -161 -687 4 -64 11 -129 16 -146 5 -16 10 -28 10 -25 1 3 3 52
6 110 2 58 6 116 8 130 14 94 20 121 27 125 5 3 6 14 3 25 -3 11 0 20 6 20 6
0 10 3 9 8 -1 4 5 23 14 43 9 20 19 47 23 60 4 13 17 34 29 47 11 13 21 27 21
30 0 4 3 6 7 5 5 -2 8 2 8 9 0 6 2 9 6 6 3 -3 -4 -21 -15 -39 -11 -18 -18 -36
-15 -41 3 -4 1 -8 -5 -8 -9 0 -27 -56 -23 -72 1 -5 -3 -8 -8 -8 -6 0 -10 -6
-10 -14 0 -8 -5 -27 -12 -43 -21 -52 -23 -68 -22 -173 0 -87 5 -119 28 -188
31 -93 43 -106 21 -22 -19 73 -30 203 -18 224 6 12 15 -14 32 -96 13 -62 27
-117 31 -123 5 -5 9 -14 10 -20 3 -26 14 -62 24 -80 6 -11 16 -38 22 -60 6
-22 15 -39 20 -38 5 1 10 -13 11 -29 1 -17 13 -47 27 -67 13 -20 26 -43 29
-51 4 -11 6 -9 6 5 1 19 2 18 16 -2 10 -14 13 -32 9 -48 -4 -15 -2 -25 5 -25
6 0 11 -6 11 -12 1 -14 34 -58 45 -58 3 0 3 4 0 10 -3 6 1 7 9 4 21 -8 21 19
1 36 -8 7 -13 16 -10 20 3 4 -2 10 -10 14 -8 3 -12 11 -9 19 3 8 -2 20 -10 27
-9 7 -13 16 -10 21 3 5 -2 9 -11 9 -11 0 -15 5 -12 14 3 8 -1 20 -9 26 -8 7
-14 18 -14 25 0 7 -6 15 -14 18 -9 4 -12 14 -9 27 6 21 7 21 19 -6 8 -16 22
-43 33 -60 71 -116 119 -224 100 -224 -5 0 -9 7 -9 15 0 9 -6 12 -15 9 -8 -4
-15 -13 -15 -21 0 -8 5 -11 12 -7 7 5 9 2 6 -7 -3 -8 -1 -23 4 -34 8 -18 8
-18 4 3 -4 19 -2 21 10 11 11 -9 14 -8 14 5 0 10 4 15 9 11 6 -3 3 -18 -7 -34
-15 -27 -15 -30 1 -55 10 -15 23 -24 29 -20 6 4 8 3 5 -3 -8 -13 15 -60 43
-91 12 -12 18 -27 15 -32 -3 -6 1 -7 10 -4 11 5 14 2 9 -10 -3 -9 -1 -16 5
-16 6 0 11 -6 11 -14 0 -8 7 -17 16 -20 8 -3 13 -10 9 -16 -3 -5 5 -22 19 -36
28 -31 22 -20 116 -224 39 -85 95 -200 124 -255 29 -55 85 -171 125 -258 212
-464 270 -693 258 -1011 -9 -233 -46 -374 -152 -581 -34 -67 -81 -148 -105
-181 -121 -164 -355 -365 -537 -458 -39 -20 -77 -44 -83 -52 -7 -8 -17 -14
-22 -14 -6 0 -22 -8 -36 -19 -15 -10 -43 -22 -62 -26 -58 -11 -70 -16 -70 -28
0 -6 -21 -31 -47 -55 -79 -75 -198 -159 -458 -322 -170 -108 -247 -168 -240
-190 7 -22 4 -24 -215 -152 -182 -107 -206 -119 -307 -152 -103 -34 -156 -80
-214 -186 l-41 -75 6 62 c3 35 17 89 30 122 23 58 82 153 98 159 4 2 8 8 8 13
0 17 -76 -32 -125 -79 -25 -25 -59 -73 -74 -106 -72 -153 -68 -303 14 -471 84
-173 203 -286 430 -410 131 -71 153 -86 159 -108 3 -12 6 -97 6 -189 l0 -168
24 0 c20 0 24 6 30 46 3 26 6 77 6 113 1 81 10 69 43 -59 22 -86 27 -95 50
-98 l25 -3 -14 63 c-7 35 -29 108 -48 163 -23 62 -30 92 -20 80 16 -20 17 -20
10 0 -4 11 -35 66 -69 123 -57 96 -125 171 -141 155 -3 -4 -19 5 -34 19 -15
13 -42 35 -61 48 l-34 23 19 -29 c10 -16 27 -39 38 -51 24 -28 17 -29 -31 -2
-61 34 -139 97 -198 161 -90 97 -92 94 48 90 110 -3 134 0 239 27 64 17 170
50 237 74 66 24 125 41 131 37 8 -5 6 -29 -6 -81 -15 -64 -16 -102 -8 -284 4
-116 8 -301 9 -413 l0 -202 74 0 73 0 -6 237 c-3 131 -9 316 -12 411 -5 142
-3 189 11 270 10 54 25 105 34 115 32 33 151 50 361 51 218 0 297 -11 502 -70
345 -99 615 -273 708 -456 l34 -66 -16 -89 c-9 -48 -18 -97 -21 -108 -3 -11
-8 -32 -12 -48 -10 -36 -22 -34 -23 4 -1 46 -12 49 -13 3 -1 -28 -3 -32 -7
-14 -4 23 -5 23 -12 5 -7 -19 -1 -58 27 -177 l15 -68 228 0 c148 0 231 4 235
10 14 23 17 238 5 325 -7 50 -12 97 -13 105 0 8 -4 21 -10 28 -5 6 -7 12 -3
12 4 0 0 13 -8 29 -9 16 -12 31 -9 35 4 3 1 6 -5 6 -7 0 -12 6 -12 13 0 7 -10
23 -23 37 -95 104 -89 162 10 94 87 -60 195 -166 250 -246 66 -96 135 -240
170 -355 25 -83 30 -93 51 -93 17 0 22 4 18 18 -79 286 -216 495 -448 685 -40
33 -45 42 -36 57 11 17 69 22 85 7 3 -4 11 -7 17 -7 6 0 -4 13 -22 29 -17 17
-32 35 -32 40 0 6 -4 11 -8 11 -5 0 -9 7 -9 15 0 14 18 14 65 -1 23 -7 12 3
-38 34 -27 17 -50 38 -50 47 0 8 -8 15 -17 15 -14 0 -15 2 -4 9 11 7 11 9 0
14 -8 3 -2 6 13 6 34 1 188 -64 258 -109 85 -54 182 -168 240 -280 28 -55 46
-100 40 -100 -5 0 -10 6 -10 14 0 7 -6 18 -12 24 -25 20 -11 -188 18 -282 9
-28 17 -91 19 -139 3 -76 2 -87 -11 -76 -8 6 -14 18 -14 25 0 8 -4 14 -9 14
-6 0 -6 -12 0 -32 5 -18 9 -34 9 -35 0 -2 67 -3 149 -3 l148 0 26 39 c48 72
239 258 359 349 31 24 68 58 82 77 14 18 31 39 38 47 7 7 47 51 88 97 41 46
110 110 153 143 165 126 583 361 827 466 63 27 143 63 178 80 34 17 62 27 62
24 0 -4 4 -2 8 4 9 15 72 47 79 40 3 -2 1 -15 -3 -28 -4 -13 -8 -25 -9 -28 0
-3 -11 -35 -24 -72 -23 -62 -27 -68 -75 -92 -28 -14 -125 -53 -216 -87 -348
-130 -532 -238 -777 -458 -150 -134 -354 -389 -352 -440 0 -12 5 -9 17 9 194
284 512 560 817 709 155 76 301 121 416 128 l96 6 6 -33 c7 -34 -9 -116 -26
-138 -8 -10 -23 -12 -48 -8 -45 7 -239 -41 -342 -85 -166 -70 -334 -217 -452
-394 -42 -64 -195 -339 -195 -352 0 -2 16 -3 36 -3 29 0 49 11 104 58 106 90
194 150 267 184 37 17 77 39 88 49 60 53 345 117 345 77 0 -7 -16 -46 -36 -88
-35 -76 -36 -77 -92 -94 -72 -23 -272 -113 -343 -154 l-54 -32 253 0 254 0 -8
32 c-26 116 11 249 126 453 43 77 88 165 100 194 28 71 74 262 95 393 18 105
65 247 89 267 10 8 7 -11 -9 -66 -12 -44 -27 -137 -34 -213 -20 -234 -31 -321
-61 -470 -29 -147 -91 -343 -135 -430 -21 -41 -65 -149 -65 -158 0 -2 19 -2
42 0 l42 3 43 110 c60 154 98 269 136 415 l32 125 0 270 c0 306 -3 288 100
495 41 83 61 108 154 200 129 127 203 226 352 467 161 261 335 525 417 635
108 144 195 239 488 534 288 290 438 413 694 574 139 87 167 112 232 215 50
78 171 263 270 414 30 46 47 80 43 90 -32 80 -46 321 -24 421 9 42 8 58 -6 93
-23 57 -30 164 -16 236 9 47 9 66 0 83 -19 34 -24 217 -9 291 16 78 45 138 64
131 7 -3 25 -27 40 -54 15 -27 39 -59 55 -72 46 -39 62 -72 72 -149 11 -73 43
-176 62 -194 7 -7 8 -6 4 1 -15 26 -38 197 -29 206 14 14 105 -17 167 -58 28
-17 71 -53 98 -78 47 -46 60 -50 31 -8 -18 26 -8 28 26 5 32 -22 47 -42 55
-72 3 -13 17 -38 30 -55 13 -17 46 -76 73 -131 116 -231 184 -436 184 -557 0
-86 -13 -122 -90 -253 -78 -132 -300 -613 -332 -719 -10 -33 -23 -86 -29 -116
-14 -72 -20 -220 -9 -220 4 0 8 34 8 76 0 131 44 276 156 511 26 54 69 147 95
207 27 60 82 166 123 235 117 197 128 267 70 458 -20 65 -42 137 -49 160 -7
24 -9 40 -4 37 5 -3 9 -1 9 5 0 5 -4 12 -9 15 -14 9 -11 77 3 70 6 -3 2 2 -8
10 -11 9 -16 16 -12 16 5 0 3 7 -4 15 -10 12 -10 15 1 15 12 0 12 2 0 9 -16
10 -19 90 -4 100 6 3 11 47 12 96 2 114 3 115 13 109 4 -3 8 3 8 12 0 10 3 15
6 11 4 -3 12 -1 20 6 7 7 19 17 26 22 21 17 107 55 138 62 33 6 32 9 50 -152
20 -171 56 -363 86 -460 19 -59 56 -139 67 -143 4 -2 7 -9 7 -15 1 -14 39 -62
44 -56 2 2 7 54 10 114 8 126 20 218 41 313 8 37 22 108 31 157 9 50 21 100
28 112 11 23 12 23 46 4 40 -21 72 -78 96 -172 16 -64 16 -231 -2 -435 -13
-146 31 -216 198 -320 273 -169 448 -345 526 -529 30 -73 45 -175 37 -251 -8
-73 -25 -81 -39 -18 -22 102 -52 176 -108 266 -57 94 -147 205 -148 183 0 -5
16 -27 36 -48 20 -21 53 -71 74 -111 33 -63 39 -85 45 -167 9 -116 38 -196
110 -299 29 -41 66 -103 83 -136 16 -34 44 -83 63 -109 32 -45 34 -50 32 -130
-3 -220 -105 -348 -338 -425 -38 -13 -87 -31 -108 -40 -50 -23 -37 -33 79 -61
l90 -21 90 60 c121 82 195 162 242 259 33 69 37 87 37 153 0 88 -22 143 -86
212 -42 46 -90 137 -109 208 -9 33 -9 72 1 167 14 146 8 217 -26 314 -80 230
-231 396 -553 607 -123 81 -150 104 -167 146 -18 42 -20 130 -4 175 12 35 23
39 38 14 14 -27 32 -5 84 104 56 119 71 197 57 307 -10 81 -33 171 -55 221 -7
17 -29 66 -49 110 -19 44 -55 116 -80 160 -90 159 -91 163 -71 215 81 208 102
330 76 437 -38 151 -186 298 -408 404 -49 23 -89 43 -91 44 -1 1 7 28 18 61
12 32 27 102 35 154 20 126 19 395 0 478 -18 76 -70 180 -124 247 -22 28 -61
78 -86 111 -41 57 -44 64 -34 90 18 49 16 289 -4 364 -43 161 -162 348 -319
503 -73 71 -95 87 -120 87 l-31 0 45 -48 c84 -90 178 -276 229 -457 34 -116
66 -322 56 -350 -7 -16 -12 -13 -50 26 -85 90 -116 147 -128 233 -26 191 -108
360 -262 539 l-50 57 -96 -1 c-53 0 -91 -3 -84 -5 7 -3 9 -12 6 -20 -3 -8 -2
-14 3 -13 21 4 35 -2 29 -11 -5 -9 1 -12 21 -9 3 0 19 -15 36 -35 17 -20 35
-33 43 -29 16 6 24 -1 86 -77 84 -104 159 -276 159 -365 0 -61 -13 -51 -55 40
-93 204 -257 362 -439 422 -74 25 -95 27 -241 27 -88 0 -194 -5 -235 -12 -135
-23 -293 -72 -410 -128 -108 -53 -166 -72 -154 -53 3 5 0 9 -7 9 -8 0 -6 6 4
18 24 27 21 35 -10 29 l-28 -5 25 20 c46 37 214 115 365 169 l80 28 -86 1
c-80 0 -94 -3 -165 -37 -83 -38 -216 -112 -273 -150 -92 -62 -65 2 49 114 69
68 72 73 47 73 -16 0 -59 -21 -103 -50 -41 -27 -80 -50 -86 -50 -6 0 -17 -8
-25 -17 -8 -10 -12 -12 -8 -5 3 6 1 12 -4 12 -6 0 -11 5 -11 11 0 5 5 7 12 3
7 -5 8 -3 3 6 -4 7 -2 16 5 20 10 6 10 12 -2 28 -10 15 -18 18 -28 11 -24 -14
-31 -10 -20 11 11 20 8 20 -942 20 l-952 0 30 -22 c76 -56 154 -138 85 -89
-18 13 -35 21 -38 18 -3 -3 4 -12 16 -19 21 -13 28 -28 14 -28 -7 0 -27 15
-80 60 -7 5 -41 26 -76 45 l-64 35 -304 -1 c-293 0 -306 -1 -372 -24z m4615
-141 c115 -124 199 -257 245 -387 23 -63 27 -91 30 -237 3 -108 1 -162 -5
-155 -5 6 -27 82 -47 170 -58 247 -140 445 -261 630 -25 39 -9 29 38 -21z
m-2927 16 c-3 -5 0 -12 5 -15 13 -8 54 -95 68 -145 43 -148 66 -213 83 -232
l20 -23 -11 24 c-7 13 -13 37 -15 55 -2 17 -10 59 -19 93 -18 65 -16 157 3
176 8 8 11 7 11 -2 0 -7 4 -10 9 -6 6 3 8 -4 6 -16 -3 -12 0 -29 5 -38 6 -10
10 -12 11 -3 4 32 20 63 29 57 4 -2 8 -49 9 -102 2 -103 9 -160 20 -167 18
-12 28 21 54 172 15 90 32 171 37 180 9 14 10 14 5 -5 -23 -84 -32 -227 -18
-294 l6 -33 11 39 c14 48 41 58 57 21 15 -32 34 -39 53 -21 22 22 26 19 26
-20 0 -19 5 -35 10 -35 6 0 10 5 10 10 0 6 5 10 10 10 6 0 10 -7 10 -16 0 -13
5 -12 29 5 33 24 98 41 87 23 -11 -19 32 -35 64 -23 27 9 28 8 20 -13 -7 -20
-5 -22 21 -20 26 2 28 -1 23 -22 -6 -23 -5 -24 55 -20 34 2 61 2 61 0 0 -2
-21 -15 -47 -29 l-48 -26 92 4 c51 2 90 0 87 -4 -3 -5 -11 -9 -17 -9 -18 -1
-88 -36 -83 -41 3 -3 51 -1 107 3 70 5 107 4 116 -3 7 -6 52 -14 99 -17 102
-6 93 -19 -20 -29 -42 -3 -75 -8 -73 -10 2 -2 44 -10 93 -19 112 -19 111 -19
216 -35 108 -16 95 -29 -31 -29 -52 0 -92 -3 -88 -6 5 -5 147 -40 197 -48 9
-1 20 -5 25 -8 6 -3 18 -4 28 -3 9 2 17 -1 17 -6 0 -5 10 -9 23 -9 36 0 163
-53 179 -75 5 -7 8 -6 8 0 0 6 -6 17 -12 24 -11 10 -10 11 4 6 9 -4 19 -13 22
-21 3 -7 12 -11 21 -8 21 8 114 -65 122 -96 6 -25 32 -52 44 -44 3 2 30 -19
60 -46 58 -53 62 -70 5 -19 -20 17 -41 32 -49 33 -7 1 -29 11 -49 23 -21 12
-38 17 -40 11 -2 -5 -46 18 -98 53 -52 35 -133 80 -182 101 -81 35 -284 85
-296 74 -3 -3 4 -8 14 -12 194 -61 345 -147 464 -264 79 -78 154 -177 140
-185 -6 -3 -10 -1 -10 4 0 6 -7 11 -16 11 -8 0 -12 5 -9 10 3 6 -1 10 -10 10
-9 0 -14 4 -11 9 3 5 -4 11 -15 14 -12 3 -18 10 -14 17 3 6 2 9 -3 8 -5 -2
-23 8 -38 22 -55 47 -105 82 -111 76 -5 -5 25 -36 116 -120 110 -101 270 -326
277 -389 2 -18 11 -45 19 -62 47 -96 155 -429 132 -405 -4 4 -77 189 -101 254
-3 10 -8 17 -11 14 -2 -2 16 -68 40 -145 24 -78 49 -182 55 -230 6 -48 15
-116 20 -149 14 -84 22 -223 13 -202 -5 9 -8 -51 -9 -135 0 -84 -6 -195 -13
-247 -6 -52 -14 -115 -16 -140 -12 -109 -18 -140 -27 -140 -5 0 -23 9 -39 21
-24 17 -27 24 -18 35 7 8 7 14 1 14 -5 0 -23 20 -38 44 -42 64 -188 191 -264
229 l-65 32 -225 -4 c-390 -8 -672 -3 -687 13 -3 2 -20 -2 -38 -10 -19 -7 -40
-12 -47 -9 -7 3 -25 -3 -39 -12 -67 -45 -87 -60 -123 -95 -21 -21 -47 -40 -56
-43 -10 -3 -21 -12 -24 -20 -5 -13 -1 -13 27 0 l32 16 -22 -20 c-13 -10 -23
-24 -23 -30 0 -7 -7 -14 -15 -17 -21 -8 -19 -26 3 -23 9 1 24 -1 33 -5 8 -4
27 -2 42 3 21 8 25 7 20 -4 -4 -11 3 -15 28 -15 312 -3 615 3 726 15 76 7 179
16 228 20 50 3 109 8 133 11 32 4 42 2 42 -9 0 -16 29 -27 73 -27 15 0 27 -4
27 -10 0 -5 12 -10 28 -11 24 0 25 -1 7 -9 -14 -6 -16 -9 -5 -10 8 -2 18 -2
22 -1 4 0 18 -9 31 -22 13 -12 38 -31 57 -42 18 -11 49 -30 69 -42 37 -23 54
-22 44 2 -4 11 3 15 25 15 50 0 50 17 -1 -265 -14 -77 -32 -182 -41 -234 -8
-51 -20 -99 -26 -106 -15 -18 -89 -35 -149 -35 -59 0 -66 13 -17 30 50 16 156
87 156 104 0 23 -20 24 -92 3 -50 -15 -72 -17 -80 -9 -7 7 1 16 31 31 43 23
54 36 21 27 -11 -3 -30 -9 -41 -12 -14 -4 -19 -2 -15 5 4 6 1 11 -6 12 -10 0
-10 2 1 6 11 4 11 7 1 13 -10 6 -4 16 20 39 43 39 34 49 -16 19 -33 -19 -37
-19 -24 -4 14 18 13 18 -9 11 -35 -11 -18 10 29 36 22 13 40 26 40 31 0 12 -8
10 -36 -9 -16 -10 -49 -17 -89 -18 l-63 -1 24 31 c33 44 30 52 -8 20 -24 -20
-33 -24 -37 -14 -2 8 -9 18 -15 22 -8 6 -7 10 1 14 10 3 9 9 -3 20 -12 13 -18
13 -24 4 -5 -10 -13 -10 -27 -2 -11 5 -23 7 -27 4 -3 -3 -6 -1 -6 5 0 7 -6 11
-12 9 -7 -1 -12 3 -11 9 1 7 -7 14 -17 17 -11 3 -20 1 -20 -4 0 -5 -5 -9 -10
-9 -6 0 -10 6 -9 13 4 22 -12 46 -27 40 -8 -3 -14 0 -14 5 0 7 -10 8 -28 2
-27 -7 -28 -6 -24 17 4 21 2 24 -14 19 -11 -3 -40 1 -65 8 -26 8 -72 17 -103
21 -40 5 -56 12 -56 22 0 12 -3 13 -14 4 -13 -11 -57 -11 -66 0 -11 13 -301
-14 -335 -31 -3 -1 -9 -4 -15 -5 -5 -1 -11 -3 -12 -5 -2 -1 -11 -3 -22 -5 -40
-8 -256 -131 -256 -147 0 -4 32 8 70 27 66 33 162 74 185 79 6 1 24 5 40 9 61
13 91 19 139 24 45 5 49 4 43 -13 -7 -18 -6 -18 7 -1 9 12 28 17 65 17 28 0
51 -4 51 -9 0 -6 -10 -22 -23 -37 -17 -20 -34 -27 -65 -29 -37 -2 -42 1 -43
19 0 12 -3 15 -6 8 -8 -21 -53 -34 -70 -21 -11 9 -16 8 -26 -4 -19 -27 -59
-26 -73 1 -13 26 -18 22 -28 -20 -3 -16 -10 -27 -14 -26 -12 2 -42 -13 -96
-49 -28 -18 -54 -33 -57 -33 -14 0 -224 -131 -267 -167 -49 -40 -45 -50 24
-59 20 -2 40 -6 44 -9 10 -6 7 15 -4 33 -5 9 -17 11 -33 7 l-25 -6 25 27 c21
23 31 26 61 21 22 -3 34 -2 31 4 -4 5 -1 9 6 9 7 0 22 8 33 19 12 10 43 26 69
36 59 22 58 23 81 -93 12 -64 23 -92 39 -106 49 -42 271 -126 334 -126 41 0
80 24 150 91 51 49 113 151 113 187 0 7 13 12 30 12 39 0 146 -100 155 -145
18 -88 9 -105 -75 -145 -45 -21 -45 -21 -10 -16 19 3 45 7 57 10 13 3 25 1 28
-5 4 -5 -1 -9 -10 -9 -9 0 -13 -4 -10 -10 4 -6 -7 -10 -25 -10 -17 0 -29 -4
-26 -8 3 -5 -7 -10 -22 -11 -15 -1 -47 -4 -72 -7 -25 -2 -69 -6 -98 -7 -37 -1
-51 -6 -47 -15 4 -10 0 -10 -18 0 -12 6 -29 13 -37 14 -8 1 -24 5 -34 9 -15 7
-17 5 -11 -6 6 -11 5 -12 -6 -1 -30 27 -41 2 -13 -30 9 -10 22 -41 29 -70 12
-52 17 -51 29 5 4 15 11 27 17 27 6 0 8 -7 5 -15 -4 -12 -2 -14 11 -6 12 6 21
4 31 -7 7 -10 11 -11 7 -4 -3 6 -2 12 4 12 8 0 23 -34 45 -100 2 -8 5 -4 5 10
1 14 4 35 7 47 5 19 9 21 27 11 16 -8 22 -8 25 2 3 8 12 -1 22 -20 l18 -34 7
32 c3 17 10 31 13 31 19 -3 33 2 27 10 -3 5 -1 12 4 15 5 3 11 0 14 -7 3 -8
18 -12 37 -11 25 2 34 -3 42 -22 13 -29 28 -31 28 -5 0 10 13 33 29 50 15 16
26 32 24 35 -12 11 67 17 87 6 30 -16 35 -7 14 26 -13 19 -15 29 -7 31 7 3 10
10 7 17 -6 16 21 46 42 46 16 0 19 26 4 35 -28 17 -1 20 78 8 95 -15 195 -10
270 12 25 8 48 12 51 10 10 -10 -81 -469 -115 -582 -72 -238 -247 -599 -367
-756 -24 -30 -233 -214 -341 -299 -12 -9 -63 -28 -114 -43 -194 -54 -301 -107
-437 -214 -77 -61 -294 -271 -230 -223 22 16 49 40 60 52 36 41 198 173 272
221 40 26 105 59 144 74 72 28 251 77 257 71 1 -2 -72 -75 -165 -162 -367
-348 -474 -472 -679 -784 -133 -204 -179 -265 -269 -359 -110 -115 -346 -291
-467 -349 -43 -20 -78 -39 -78 -43 0 -10 136 43 184 72 62 36 34 6 -56 -61
-87 -64 -92 -73 -25 -39 97 50 188 117 280 207 53 53 97 93 97 88 0 -4 -20
-47 -45 -95 -72 -140 -189 -267 -325 -353 -60 -38 -367 -201 -600 -318 -80
-41 -156 -81 -170 -91 -58 -40 -284 -168 -288 -164 -3 3 7 14 22 26 14 11 32
26 39 33 6 6 34 28 61 49 56 43 50 50 -9 10 -34 -22 -159 -125 -175 -144 -3
-3 -50 -37 -105 -76 -125 -88 -172 -126 -259 -211 -38 -37 -65 -58 -61 -47 4
11 14 45 23 75 9 30 20 58 25 61 5 3 8 10 6 15 -1 5 8 14 20 20 11 6 18 13 15
17 -9 8 29 56 44 57 7 0 10 5 6 11 -4 6 12 28 36 49 24 21 40 43 36 49 -4 6
-2 11 3 11 6 0 11 -6 11 -12 0 -7 5 -5 11 5 5 9 7 22 3 29 -4 7 -3 8 4 4 7 -4
12 -2 12 4 0 32 258 170 430 231 106 37 326 150 438 223 75 50 244 195 280
241 11 14 28 47 38 73 32 91 92 208 155 307 36 55 82 132 103 170 l38 70 -51
-55 c-52 -57 -62 -60 -36 -10 9 17 13 30 11 30 -3 0 -33 -55 -67 -121 -73
-141 -117 -190 -217 -242 -112 -59 -220 -81 -397 -80 -291 0 -589 78 -808 210
-254 154 -771 701 -1042 1103 -185 275 -278 543 -351 1014 -13 89 -35 229 -49
311 -41 252 -78 612 -90 870 -9 208 22 513 69 683 14 48 30 118 36 157 18 110
77 391 103 490 69 258 174 410 380 548 65 44 116 81 113 84 -2 2 -31 -9 -64
-26 -33 -16 -62 -27 -66 -24 -3 4 -6 1 -6 -5 0 -7 -5 -12 -11 -12 -22 0 11 27
127 106 114 77 142 100 107 87 -25 -9 -144 -82 -165 -101 -10 -8 -18 -12 -18
-9 0 6 84 79 179 157 24 19 57 47 75 62 17 15 34 28 37 28 4 0 9 7 13 15 6 17
-6 11 -83 -37 -20 -13 7 19 63 75 54 53 95 101 91 106 -3 6 10 32 30 59 19 27
35 53 35 58 0 5 9 20 20 34 11 14 20 33 20 43 0 9 4 17 8 17 9 0 34 71 28 78
-2 2 -10 -8 -18 -22 -76 -144 -181 -296 -202 -296 -8 0 -7 3 0 8 12 8 70 97
122 187 66 115 75 130 94 160 10 17 21 38 24 48 4 9 12 16 19 15 16 -4 87 90
79 104 -4 7 -3 8 4 4 6 -3 16 3 22 14 6 11 7 20 3 20 -4 1 3 8 17 16 14 8 17
13 8 10 -12 -3 -15 -1 -12 9 3 8 12 11 19 8 19 -7 78 29 63 38 -7 4 -19 -1
-29 -12 -11 -13 -20 -16 -24 -9 -3 5 1 13 9 16 9 3 13 11 9 17 -3 6 -1 7 5 3
7 -4 12 -1 12 6 0 8 3 9 8 3 4 -5 15 -11 26 -13 14 -3 17 1 12 14 -4 10 -4 15
0 11 4 -3 19 2 33 12 14 10 33 16 41 13 13 -5 13 -3 1 12 -13 16 -16 16 -26 3
-6 -9 -16 -12 -23 -8 -13 8 153 91 181 91 10 0 17 6 18 13 1 6 4 2 7 -10 6
-21 9 -22 32 -10 89 46 273 107 375 124 49 8 210 17 313 18 92 0 109 2 95 13
-9 6 -22 12 -29 12 -7 0 -15 4 -18 9 -4 5 2 8 11 6 29 -6 203 -14 203 -9 0 8
-25 49 -44 71 -11 13 -16 26 -13 30 4 3 7 1 7 -5 0 -7 7 -12 16 -12 8 0 12 5
9 10 -3 6 -2 10 2 10 5 0 14 -9 21 -20 7 -11 17 -20 23 -20 7 0 7 6 -2 17 -13
15 -12 15 17 0 17 -9 36 -23 43 -31 8 -9 18 -16 23 -16 6 0 4 8 -3 17 -8 9 13
-4 46 -29 33 -25 71 -51 83 -57 42 -22 37 -1 -10 44 -26 24 -55 57 -64 72
l-18 28 31 -29 c17 -15 36 -25 41 -22 6 3 12 3 14 -2 1 -4 28 -28 60 -52 121
-96 129 -100 97 -45 -23 38 -13 47 16 15 21 -23 40 -26 32 -5 -4 8 -2 17 4 20
5 4 6 11 3 17 -4 6 1 8 12 4 24 -7 47 24 33 45 -5 8 -8 21 -8 29 0 12 2 11 7
-2 12 -28 145 -174 138 -150 -9 28 5 29 22 1 22 -35 25 -14 4 28 -44 85 -59
208 -28 225 9 5 14 13 11 19 -3 5 1 6 9 3 9 -3 14 -10 11 -14z m1697 -73 c7
-7 24 -21 38 -30 13 -9 18 -17 11 -17 -21 0 36 -49 64 -56 14 -3 25 -10 25
-15 0 -5 9 -9 20 -9 11 0 19 -6 18 -12 -2 -8 6 -12 19 -11 24 3 48 -21 38 -37
-3 -5 -14 -10 -23 -10 -13 0 -14 -2 -3 -9 7 -5 23 -7 35 -4 21 3 21 3 1 -6
-25 -11 -161 -38 -228 -45 -33 -3 -46 -2 -41 6 4 7 2 8 -5 4 -20 -13 -58 2
-64 24 -3 11 -2 18 2 15 4 -2 8 2 8 10 0 8 -4 12 -9 9 -4 -3 -8 0 -8 6 0 6 -5
8 -12 4 -8 -5 -9 -2 -5 11 9 22 -23 51 -35 32 -6 -9 -8 -9 -8 0 0 7 11 20 24
28 13 9 27 23 30 32 5 12 0 14 -23 11 -26 -4 -29 -2 -20 14 5 10 11 18 12 18
1 0 29 11 62 25 33 13 61 25 62 25 1 0 8 -6 15 -13z m658 -263 c99 -20 298
-88 380 -129 88 -45 161 -109 269 -237 50 -59 115 -125 144 -147 149 -110 298
-316 297 -410 -1 -25 -1 -25 -12 -6 -25 44 -157 170 -228 216 -104 69 -269
151 -365 183 -84 27 -242 65 -357 86 -38 7 -68 17 -68 22 0 5 -5 6 -12 2 -7
-4 -8 -3 -4 5 4 6 11 9 15 7 4 -3 13 -1 21 4 13 8 12 12 -5 24 -11 8 -33 18
-50 22 l-30 7 30 6 30 7 -40 13 c-22 8 -51 23 -65 34 l-25 20 130 -7 c72 -3
170 -13 219 -22 48 -8 90 -13 93 -10 15 15 -314 86 -399 86 -15 0 -30 5 -34
12 -4 6 -3 8 2 5 11 -6 41 9 34 17 -3 2 -54 10 -115 17 -125 14 -117 23 30 32
55 4 102 7 105 8 3 1 -15 5 -40 10 -57 10 -304 10 -391 1 -36 -4 -76 -5 -90
-1 -17 5 -18 7 -6 8 10 1 16 5 12 10 -3 6 9 12 27 16 18 3 62 10 98 16 95 15
147 26 130 29 -23 2 -167 -1 -192 -5 -104 -16 -199 -16 -132 0 11 3 51 14 90
25 171 49 338 57 504 24z m162 -559 c88 -17 241 -58 297 -81 21 -8 47 -28 59
-43 16 -21 28 -27 52 -26 19 1 34 -4 37 -11 3 -8 9 -12 13 -9 4 3 14 -3 21
-12 8 -10 9 -14 2 -10 -18 11 -25 -9 -8 -23 8 -7 15 -19 15 -27 0 -8 5 -11 10
-8 6 3 10 1 10 -4 0 -20 -20 -11 -30 12 -5 12 -9 16 -9 9 -1 -14 -61 25 -61
40 0 16 30 7 31 -9 0 -12 2 -13 6 -5 7 17 -17 44 -34 38 -7 -3 -13 0 -13 7 0
8 -3 8 -9 -2 -7 -11 -10 -11 -17 1 -10 15 -64 41 -72 34 -2 -3 -13 -1 -23 5
-13 6 -19 6 -19 0 0 -14 36 -32 45 -23 5 4 5 1 1 -5 -9 -16 24 -74 37 -66 6 3
7 1 3 -6 -5 -8 -12 -9 -19 -3 -7 5 -20 8 -29 7 -10 -2 -18 1 -18 6 0 5 -3 8
-7 8 -5 -1 -11 0 -15 1 -5 1 -11 3 -15 4 -115 30 -143 42 -143 58 0 10 2 10 8
1 5 -8 12 -8 26 3 18 13 15 19 -7 15 -10 -2 -181 90 -185 100 -2 4 -11 5 -22
2 -12 -3 -22 3 -29 16 -10 18 -9 21 11 21 13 0 58 -7 100 -15z m-600 -85 c16
-17 33 -28 39 -25 5 4 8 1 7 -7 -2 -8 4 -12 16 -10 11 2 15 -1 11 -8 -8 -12
12 -40 28 -40 6 0 2 7 -9 15 -10 8 -14 15 -8 15 16 0 37 -28 41 -53 4 -25 20
-44 29 -34 4 3 -1 13 -10 22 -23 24 -20 31 4 10 12 -10 18 -25 15 -33 -6 -15
18 -55 28 -47 4 3 5 2 2 -1 -2 -4 2 -16 10 -27 11 -16 12 -24 3 -34 -6 -8 -7
-13 -2 -12 23 4 34 -3 34 -20 0 -11 5 -23 10 -26 6 -3 10 -12 10 -18 0 -8 -3
-8 -9 1 -7 11 -10 10 -15 -3 -8 -22 -8 -27 3 -21 5 3 12 -1 15 -10 3 -8 2 -12
-4 -9 -6 3 -10 4 -10 0 0 -7 23 -48 31 -55 9 -9 30 -66 32 -88 1 -12 4 -22 7
-22 7 0 8 -4 13 -55 2 -17 5 -35 8 -40 7 -13 11 -80 4 -74 -2 3 -6 19 -9 35
-2 16 -6 36 -9 44 -3 8 -8 30 -11 49 -3 19 -11 38 -18 42 -7 4 -9 11 -5 15 4
4 0 18 -8 31 -9 13 -12 23 -8 23 5 0 3 4 -3 8 -6 4 -37 61 -69 127 -62 127
-154 271 -204 319 -29 28 -39 46 -25 46 4 0 20 -14 36 -30z m1387 -273 c50
-100 63 -187 58 -372 -4 -162 -15 -218 -44 -229 -9 -4 -17 -5 -19 -3 -2 2 -5
97 -8 213 -3 196 -17 315 -51 448 -7 26 -6 27 13 17 11 -6 35 -39 51 -74z
m-412 -80 c7 -5 11 -13 8 -17 -2 -4 5 -7 18 -6 13 1 22 -5 22 -14 0 -8 9 -19
21 -25 17 -8 19 -14 10 -28 -8 -13 -8 -20 3 -27 13 -7 13 -11 1 -25 -12 -14
-12 -18 1 -26 10 -6 10 -9 2 -9 -7 0 -13 -9 -13 -20 0 -48 -96 -54 -185 -11
-71 33 -162 101 -225 166 -38 40 -41 46 -20 39 14 -4 43 -9 65 -10 22 0 53 -6
68 -12 16 -7 35 -12 43 -12 8 0 26 -7 39 -16 19 -12 28 -13 42 -4 17 10 16 11
-3 7 -17 -4 -20 0 -16 19 3 19 8 21 28 14 14 -6 26 -6 29 1 4 5 10 7 14 5 4
-3 13 -1 21 5 13 7 12 9 -2 9 -9 0 -19 4 -22 9 -7 11 34 2 51 -12z m-17 -378
c105 -34 190 -72 190 -85 0 -9 5 -12 12 -8 7 5 8 3 2 -7 -4 -7 -7 -27 -5 -44
1 -20 -6 -41 -19 -58 -18 -22 -20 -30 -10 -42 11 -13 6 -23 -29 -57 -27 -28
-38 -45 -31 -52 17 -17 11 -28 -10 -21 -12 4 -26 0 -36 -10 -20 -19 -23 -16
54 -50 34 -15 62 -32 62 -36 0 -12 6 -14 -140 37 -72 25 -136 44 -143 41 -7
-2 7 -15 30 -30 39 -25 62 -47 47 -47 -14 0 -130 65 -154 86 -14 13 -51 40
-83 62 -70 47 -187 150 -187 163 0 6 23 -8 51 -30 55 -43 72 -51 63 -26 -4 8
-9 15 -13 15 -11 0 -32 50 -26 61 4 5 2 9 -2 9 -5 0 -9 9 -10 21 -2 20 0 19
32 -5 18 -14 36 -26 40 -26 3 0 16 -9 28 -20 12 -11 27 -18 35 -15 8 3 10 0 6
-7 -5 -7 -2 -9 9 -5 9 3 18 1 20 -6 2 -7 8 -9 12 -5 4 4 -17 51 -48 105 -31
53 -54 99 -52 101 2 2 25 -14 52 -36 77 -64 165 -113 180 -100 7 6 13 18 12
27 0 14 -1 14 -7 1 -4 -8 -13 -16 -20 -18 -9 -1 -8 4 3 22 14 21 14 24 0 29
-8 4 -15 12 -15 19 0 11 2 11 8 0 5 -7 16 -10 25 -6 9 3 14 11 11 16 -4 6 -10
5 -15 -3 -7 -11 -9 -10 -9 4 0 9 5 17 10 17 6 0 10 8 10 18 0 13 -2 14 -9 4
-6 -10 -10 -10 -20 1 -9 12 -6 14 21 11 18 -2 49 -9 68 -15z m851 -521 c114
-119 153 -252 124 -417 -15 -88 -53 -186 -54 -141 0 14 4 45 10 70 36 157 -5
349 -102 478 -48 63 -35 69 22 10z m-7180 -52 c-30 -60 -130 -200 -219 -304
-24 -29 -99 -99 -166 -155 -66 -56 -173 -152 -236 -214 -102 -100 -116 -110
-128 -95 -7 9 -10 22 -8 29 3 7 1 13 -4 13 -6 0 -10 6 -10 14 0 8 -6 16 -12
19 -8 3 76 96 197 220 116 118 242 250 281 293 62 68 74 77 87 65 24 -19 39
-8 156 111 47 48 88 82 90 76 2 -5 -11 -38 -28 -72z m6200 -167 c102 -73 225
-137 326 -169 94 -30 91 -40 -13 -40 -38 0 -84 7 -113 19 -74 28 -186 107
-240 170 -87 102 -79 105 40 20z m-236 -136 c67 -218 123 -336 219 -463 92
-123 150 -168 265 -205 99 -32 232 -10 331 55 25 16 184 90 195 90 34 0 -106
-80 -168 -95 -35 -9 -47 -28 -13 -20 14 3 37 7 51 10 46 10 202 7 246 -5 68
-17 148 -62 175 -97 41 -54 83 -145 94 -203 19 -108 20 -119 11 -124 -4 -3
-13 18 -19 47 -16 83 -54 157 -110 218 -62 67 -123 95 -232 106 -90 10 -147 3
-260 -27 -110 -31 -261 -34 -337 -7 -133 46 -274 175 -342 310 -38 76 -106
302 -132 441 -5 28 -12 59 -15 69 -3 9 -3 17 -1 17 3 0 21 -53 42 -117z m170
-60 c14 -14 18 -14 26 -2 8 13 13 5 10 -14 -1 -5 3 -6 9 -2 5 3 42 -15 82 -41
79 -51 212 -122 268 -142 31 -11 33 -14 16 -23 -39 -24 -196 8 -287 58 -55 29
-113 88 -103 104 3 5 -6 25 -21 44 -28 37 -28 46 0 18z m1051 -164 c25 -44 66
-105 91 -137 112 -143 253 -514 253 -666 0 -75 -42 -207 -81 -259 -12 -15 -14
0 -15 110 -2 175 -53 391 -135 570 -10 24 -19 45 -19 47 0 8 -75 131 -125 206
-61 91 -75 121 -75 165 0 41 25 71 46 54 7 -6 34 -46 60 -90z m-1272 -34 c2
-9 43 -91 77 -155 37 -68 178 -230 245 -281 35 -27 191 -128 206 -134 16 -6
48 -57 48 -75 0 -9 -7 -8 -22 3 -13 9 -43 26 -68 38 -25 11 -72 34 -105 49
-75 36 -197 151 -261 245 -46 69 -104 185 -104 210 0 7 -11 46 -24 88 -30 95
-43 163 -15 82 11 -33 22 -64 23 -70z m-5987 -109 c-4 -10 0 -12 16 -8 12 2
28 9 35 15 20 16 14 -5 -10 -32 l-23 -25 38 22 c24 14 37 17 36 9 0 -6 2 -23
6 -35 6 -18 10 -20 16 -10 6 9 9 7 9 -9 0 -13 -4 -23 -10 -23 -6 0 -9 -3 -8
-7 4 -19 -15 -62 -29 -68 -14 -5 -14 -3 -2 12 9 11 1 8 -21 -7 -78 -55 -142
-118 -134 -132 4 -7 3 -8 -4 -4 -6 3 -16 -3 -22 -15 -8 -15 -9 -19 -1 -15 6 4
11 2 11 -3 0 -6 -4 -11 -9 -11 -11 0 -8 -47 4 -58 4 -4 5 -1 0 7 -6 10 -4 12
5 6 10 -6 9 -11 -5 -22 -14 -9 -15 -13 -4 -13 12 0 12 -2 -1 -11 -13 -9 -13
-10 0 -8 39 4 46 -7 26 -40 -6 -10 -5 -12 2 -7 7 4 12 0 13 -11 0 -10 3 -31 5
-48 3 -16 6 -36 6 -42 1 -7 5 -13 8 -13 8 0 24 -57 21 -75 0 -6 18 -9 44 -7
38 3 48 0 70 -23 14 -16 25 -33 25 -40 0 -24 62 -135 76 -135 8 0 14 -5 14
-11 0 -8 5 -7 16 2 24 20 13 87 -23 140 -44 64 -83 170 -83 224 0 50 60 220
87 245 9 8 14 11 11 5 -9 -17 22 -392 37 -445 4 -13 49 -354 75 -565 14 -109
13 -113 -22 -131 -62 -32 -179 0 -258 72 -72 65 -127 202 -145 363 -4 36 -16
90 -27 120 -25 73 -50 163 -45 168 2 2 26 -17 53 -41 27 -25 52 -42 55 -38 11
12 19 73 10 67 -31 -19 -92 50 -117 132 -28 91 -5 297 45 408 10 22 25 57 35
79 24 55 112 142 93 92z m6341 -39 c6 -5 12 -6 12 -2 0 5 8 2 18 -6 16 -14 86
-50 107 -55 168 -43 195 -56 195 -90 0 -20 -15 -25 -84 -25 -43 -1 -79 6 -109
19 -25 11 -58 23 -74 26 -34 8 -143 100 -143 121 0 30 45 37 78 12z m-2056
-538 c13 -6 35 -28 51 -50 52 -76 126 -78 247 -8 14 8 28 17 31 22 3 4 19 -5
35 -19 17 -16 24 -29 17 -31 -7 -3 -9 -11 -6 -20 5 -12 3 -14 -7 -8 -10 6 -12
3 -8 -13 4 -15 2 -22 -8 -22 -7 0 -11 -6 -9 -13 3 -7 -9 -18 -27 -26 -18 -8
-40 -22 -48 -30 -15 -16 -33 -23 -57 -24 -7 0 -13 -5 -13 -10 0 -5 -10 -6 -22
-3 -13 4 -27 8 -33 9 -60 15 -105 34 -105 44 0 7 -6 10 -14 7 -17 -7 -49 25
-42 42 3 9 -2 14 -14 14 -11 0 -20 7 -20 15 0 8 -5 15 -11 15 -6 0 -8 8 -4 19
3 11 1 22 -5 26 -15 9 -12 41 6 59 18 19 35 20 66 5z m-4588 -2716 c-123 -212
-344 -405 -604 -526 -168 -78 -511 -194 -494 -166 3 5 26 21 52 36 121 69 205
134 300 229 82 83 108 104 130 104 16 0 32 3 35 7 14 14 54 9 53 -7 -1 -8 5
-14 14 -12 8 2 31 6 50 8 28 3 31 2 15 -5 -18 -9 -17 -10 8 -10 15 -1 27 4 27
9 0 6 6 10 14 10 13 0 127 77 191 130 51 42 159 153 194 198 43 56 50 53 15
-5z m921 -407 c13 -13 21 -27 17 -30 -3 -4 2 -4 13 0 15 6 17 4 12 -10 -6 -14
-3 -16 16 -10 12 3 19 3 15 -1 -8 -8 15 -35 31 -35 5 0 13 -9 16 -20 4 -11 10
-18 15 -15 5 3 13 -3 19 -12 6 -10 11 -14 11 -10 0 11 25 -14 33 -33 4 -11 7
-9 13 8 4 13 10 19 13 14 4 -7 14 -5 26 5 20 15 20 15 -1 9 -14 -4 -27 0 -39
14 -10 11 -23 17 -29 13 -6 -3 -5 0 2 8 11 12 14 12 21 0 6 -9 11 -10 15 -2 4
6 2 11 -3 11 -6 0 -11 5 -11 11 0 6 6 9 14 6 8 -3 17 -3 19 1 2 4 2 2 1 -5 -2
-6 4 -17 12 -24 12 -10 13 -9 8 7 -5 13 5 8 30 -16 58 -54 215 -268 271 -369
88 -159 94 -169 95 -143 0 13 -4 21 -9 18 -11 -7 -9 21 2 29 4 3 5 2 2 -2 -3
-3 0 -13 7 -20 12 -15 13 -19 19 -80 2 -17 7 -29 12 -26 4 2 7 -6 6 -19 -4
-44 1 -89 10 -84 4 3 6 -5 4 -18 -3 -13 2 -30 13 -41 14 -14 19 -39 22 -126 3
-60 9 -112 13 -115 5 -3 10 6 10 20 1 14 2 29 3 34 1 4 6 25 10 47 4 22 10 51
13 65 3 14 6 30 6 37 0 6 6 9 13 6 8 -3 11 2 7 15 -2 11 0 22 5 26 6 3 14 -21
21 -57 25 -146 20 -249 -24 -444 -13 -62 -22 -83 -34 -83 -14 0 -14 -2 -1 -10
13 -8 12 -10 -3 -10 -10 0 -16 -4 -13 -9 3 -5 -5 -8 -19 -8 -14 0 -22 3 -19 8
6 10 -9 12 -19 3 -10 -10 17 -32 33 -26 12 4 12 2 3 -8 -8 -8 -16 -9 -29 -2
-14 8 -21 2 -40 -36 -13 -25 -21 -49 -18 -53 6 -10 -89 -160 -138 -220 -20
-24 -45 -55 -56 -69 -23 -29 -43 -19 -23 12 8 14 9 18 1 13 -7 -4 -6 3 3 16 8
13 14 34 13 46 -2 12 1 20 5 17 4 -2 11 1 15 8 4 7 4 10 -1 6 -4 -4 -14 -3
-22 3 -7 6 -13 8 -13 3 0 -5 -9 -20 -20 -34 -17 -21 -21 -23 -30 -10 -14 22
-12 71 6 121 52 146 68 355 38 509 -29 153 -108 336 -194 451 -19 25 -55 72
-79 105 -25 32 -90 104 -145 158 -55 54 -101 104 -102 110 0 6 -2 17 -2 24 -1
7 -6 10 -12 7 -5 -3 -10 -1 -10 6 0 7 -3 9 -7 5 -5 -4 1 -14 11 -22 11 -7 17
-17 13 -20 -6 -7 -87 55 -87 67 0 3 10 14 23 22 28 18 60 6 39 -15 -9 -9 -12
-9 -12 5 0 14 -3 15 -19 5 -23 -14 -18 -30 7 -22 14 5 15 4 2 -5 -8 -6 -10
-11 -4 -11 6 0 17 7 24 15 7 8 15 13 19 11 11 -7 36 12 28 21 -5 4 -12 1 -17
-7 -7 -11 -9 -10 -7 7 1 26 20 26 56 1 13 -10 28 -15 32 -12 4 2 10 0 14 -6
12 -20 22 -9 22 25 0 20 -4 31 -8 24 -4 -7 -10 1 -14 20 -3 17 -10 31 -15 31
-4 0 -7 11 -6 24 2 17 -1 23 -11 19 -8 -3 -13 -2 -12 3 4 16 -18 59 -27 55 -5
-3 -10 2 -12 11 -3 18 24 32 33 17 4 -5 1 -8 -6 -7 -6 2 -14 -4 -16 -12 -4
-12 -3 -12 5 -2 5 8 13 14 18 14 5 -1 7 7 6 16 -3 12 -1 13 10 5 11 -9 14 -8
14 6 0 13 -6 17 -20 13 -13 -3 -17 -1 -12 6 4 7 1 12 -6 12 -9 0 -9 3 2 10 20
13 17 13 45 -14z m-1650 -476 c406 -80 807 -443 968 -875 15 -38 31 -90 36
-114 l10 -45 -57 64 c-145 163 -375 284 -682 359 -201 49 -335 65 -525 65
-229 0 -387 -26 -610 -99 -122 -40 -272 -75 -325 -75 -113 0 -203 76 -202 171
1 80 59 142 242 263 264 174 345 214 539 263 220 55 409 63 606 23z m3885
-102 c0 -9 3 -8 10 2 5 8 11 12 15 9 11 -12 -37 -58 -122 -116 -134 -91 -208
-128 -417 -208 -260 -100 -343 -136 -470 -207 -121 -68 -166 -100 -276 -198
-41 -36 -84 -72 -94 -80 -44 -34 4 27 81 102 150 147 339 295 570 444 211 138
343 195 543 237 138 29 160 31 160 15z m-2986 -112 c68 -40 121 -109 190 -247
100 -201 146 -370 152 -554 1 -60 -2 -138 -7 -173 -11 -69 -52 -195 -61 -187
-5 5 -17 -33 -22 -70 -1 -5 -8 -9 -14 -7 -10 2 -10 -3 -1 -19 8 -15 8 -19 0
-15 -7 4 -11 -1 -11 -14 0 -11 -6 -23 -14 -26 -8 -3 -12 -12 -9 -20 3 -8 0
-14 -6 -14 -6 0 -11 -15 -11 -32 0 -23 -3 -29 -9 -19 -5 8 -5 25 1 42 7 19 6
34 -2 46 -10 16 -10 16 -5 -3 4 -14 0 -24 -10 -28 -8 -3 -15 -10 -15 -16 0 -6
5 -8 10 -5 6 3 10 1 10 -4 0 -6 -6 -11 -12 -12 -10 0 -10 -2 0 -6 6 -2 12 -9
12 -14 0 -6 -6 -7 -12 -4 -7 4 -4 -2 8 -12 17 -15 19 -23 11 -41 -11 -24 -22
-28 -32 -12 -4 6 -3 9 2 8 9 -3 13 5 13 27 0 8 -5 15 -11 15 -5 0 -7 -6 -3
-12 4 -7 3 -9 -1 -5 -14 13 -12 91 2 105 7 8 11 18 8 23 -13 20 -13 52 0 102
47 184 42 290 -29 597 -15 63 -36 143 -47 177 -11 34 -19 75 -17 90 l3 27 39
-35 c22 -18 36 -27 31 -19 -25 42 -53 73 -77 86 -16 8 -28 19 -28 25 0 6 6 7
13 3 7 -4 9 -3 4 2 -5 5 -14 9 -20 9 -7 0 -12 7 -12 15 -1 8 -6 24 -12 35 -6
11 -11 25 -12 30 -1 13 -101 115 -113 115 -4 0 -8 5 -8 11 0 6 13 8 33 5 17
-2 32 -5 32 -6 0 -1 13 -4 29 -6 24 -4 26 -3 14 8 -30 27 -60 38 -108 38 -56
0 -60 14 -7 28 41 11 85 1 141 -32z m3008 -869 c-22 -48 -96 -165 -105 -167
-1 -1 -20 -3 -42 -6 -50 -7 -114 -28 -167 -55 -47 -24 -93 -33 -80 -15 17 21
21 45 10 52 -6 4 -8 3 -4 -4 3 -6 2 -13 -3 -16 -10 -7 -9 13 2 31 4 6 2 15 -4
19 -7 4 -9 3 -6 -3 3 -5 0 -10 -7 -10 -8 0 -12 6 -9 14 3 7 8 13 12 13 4 0 15
14 24 30 10 17 14 30 9 30 -5 0 -8 11 -7 25 2 14 0 23 -5 20 -5 -3 -16 2 -25
12 -14 14 -18 14 -26 2 -5 -8 -9 -9 -9 -3 0 6 7 17 15 24 8 7 15 9 15 4 0 -4
10 1 23 12 37 33 137 71 137 53 0 -6 9 -7 21 -4 16 6 20 4 13 -6 -6 -10 -3
-10 11 1 17 14 17 13 10 -9 -5 -17 -4 -21 5 -16 9 6 9 3 1 -13 -8 -15 -8 -23
1 -28 7 -5 9 -2 4 7 -4 8 -1 6 6 -3 9 -11 19 -14 28 -8 7 4 22 7 32 5 10 -2
24 4 31 16 6 10 17 19 23 19 6 0 19 10 30 21 22 25 58 40 62 28 2 -5 -9 -37
-26 -72z"/>
<path d="M5050 6830 c-154 -15 -360 -60 -360 -78 0 -5 -17 -14 -37 -21 -21 -7
-62 -24 -91 -38 -50 -23 -52 -26 -35 -38 17 -14 17 -14 -2 -15 -19 0 -19 0 1
-14 11 -8 34 -18 50 -21 l29 -6 -25 22 c-20 18 -21 21 -5 14 27 -11 103 -24
140 -24 l30 0 -30 14 c-27 12 -28 13 -7 14 12 1 30 -3 40 -9 9 -5 71 -14 137
-19 126 -11 138 -13 170 -25 131 -52 168 -64 180 -60 21 8 9 23 -14 17 -10 -3
-21 -1 -24 4 -10 15 44 7 63 -10 11 -9 37 -25 59 -36 35 -18 61 -41 47 -41 -3
0 -31 13 -62 30 -81 41 -78 31 3 -17 132 -77 251 -126 458 -188 86 -25 193
-60 225 -72 8 -3 27 -5 43 -4 17 2 29 -3 33 -13 3 -9 10 -16 15 -16 4 0 5 8 2
17 -5 13 -2 15 11 10 14 -5 17 -3 12 8 -11 30 3 14 20 -21 16 -32 19 -35 30
-20 9 13 13 14 18 4 3 -7 4 2 3 21 l-4 33 19 -23 19 -24 -7 30 c-9 45 -81 175
-117 214 -57 60 -182 128 -248 135 -9 1 -28 9 -41 18 -14 9 -65 28 -114 43
-49 15 -114 36 -144 47 -30 11 -82 29 -115 40 -33 12 -66 27 -73 35 -7 7 -28
14 -45 14 -18 1 -24 3 -14 6 40 10 11 22 -70 28 -122 8 -145 12 -96 14 23 0
45 6 48 11 3 6 0 10 -9 10 -8 0 -20 2 -28 4 -7 2 -47 0 -88 -4z"/>
<path d="M5100 6268 c0 -12 -9 -19 -27 -20 -16 -1 -36 -2 -45 -3 -9 0 -20 -4
-24 -8 -4 -4 -13 -2 -21 4 -9 9 -13 8 -13 0 0 -6 -5 -11 -11 -11 -5 0 -8 4 -5
8 3 5 -13 8 -34 8 -23 -1 -42 4 -45 12 -9 23 -25 12 -19 -13 6 -24 5 -25 -20
-15 -18 6 -25 7 -21 0 13 -20 -14 -9 -31 13 l-16 22 6 -25 c4 -21 2 -26 -14
-26 -11 0 -20 5 -20 11 0 5 -7 2 -14 -8 -14 -18 -15 -18 -26 0 -9 14 -10 15
-6 1 6 -20 -17 -31 -33 -15 -8 8 -11 8 -11 -1 0 -7 -5 -12 -11 -12 -5 0 -8 4
-4 9 3 5 1 12 -4 15 -5 4 -13 1 -17 -5 -5 -8 -3 -9 6 -4 9 5 11 4 6 -4 -6 -8
-12 -9 -20 -2 -9 8 -13 7 -13 -4 0 -8 4 -15 9 -15 5 0 6 -5 3 -11 -5 -6 -12
-4 -20 8 -7 10 -17 15 -21 10 -4 -4 -3 -7 3 -7 6 0 9 -9 6 -21 -5 -19 -7 -19
-25 8 l-20 28 6 -33 c3 -19 16 -48 28 -65 l22 -32 -22 19 c-12 11 -22 15 -22
10 0 -12 -66 60 -85 94 -16 27 -16 26 -10 -21 l6 -48 -37 16 c-47 19 -47 20
-31 -11 22 -43 164 -180 233 -225 35 -24 64 -43 64 -44 0 -1 -15 0 -32 2 l-33
4 34 -19 c41 -23 47 -46 18 -70 -12 -9 -28 -25 -36 -35 -14 -17 -12 -18 33
-13 54 7 72 1 56 -19 -8 -9 -6 -14 5 -19 14 -5 14 -9 0 -35 -19 -37 -19 -42
-1 -35 8 3 17 0 21 -5 3 -6 11 -9 16 -6 5 4 9 1 9 -6 0 -8 4 -8 15 1 9 8 15 9
15 2 0 -6 -4 -14 -10 -17 -5 -3 -15 -16 -21 -28 -11 -21 -11 -21 7 -6 40 33
45 30 15 -11 -17 -24 -31 -50 -31 -59 0 -10 9 -4 23 16 29 42 75 69 90 54 9
-9 8 -16 -1 -31 -16 -26 -15 -31 3 -24 8 4 15 1 15 -6 0 -7 15 -3 39 11 27 15
44 19 55 12 15 -8 14 -11 -4 -31 -25 -27 -25 -38 -1 -38 11 0 19 3 19 6 -2 21
6 31 35 45 l32 16 -27 -21 c-16 -12 -28 -26 -28 -32 0 -6 7 -4 17 3 15 12 16
12 10 -3 -4 -13 -2 -15 10 -11 15 6 15 4 0 -17 -29 -42 -19 -44 24 -5 49 44
98 66 128 58 l22 -6 -24 -26 c-17 -19 -22 -33 -18 -50 7 -25 7 -24 28 11 12
20 31 41 42 48 28 15 26 8 -8 -29 -16 -17 -31 -40 -34 -52 -4 -16 9 -7 44 30
52 55 70 59 61 14 l-5 -28 23 20 23 20 -12 -22 c-6 -12 -11 -32 -10 -45 1 -20
2 -19 15 9 7 17 18 34 23 37 15 10 43 -5 37 -20 -11 -29 10 -12 34 26 27 44
36 47 21 6 -7 -17 -7 -26 -1 -26 6 0 10 4 10 9 0 6 8 9 19 8 13 -1 17 -7 13
-21 -3 -13 -1 -17 6 -12 7 4 12 20 12 35 0 22 -7 29 -35 40 -20 7 -49 10 -65
6 -62 -14 -411 78 -395 104 2 4 -13 17 -33 29 -39 22 -129 108 -121 116 3 3
18 -6 33 -19 40 -35 42 -31 7 18 -32 45 -53 106 -32 93 6 -4 33 6 59 23 62 39
117 62 135 55 9 -3 19 -32 26 -74 21 -129 77 -220 158 -257 72 -33 251 -45
298 -20 71 37 163 149 180 220 4 15 10 29 14 32 7 4 73 -49 137 -110 37 -35
77 -102 69 -116 -8 -13 9 -11 22 2 8 8 17 8 33 -1 26 -14 23 -43 -5 -48 -11
-2 -27 -6 -35 -9 -8 -3 -22 -5 -29 -4 -13 2 -13 0 -2 -13 11 -13 16 -14 29 -4
10 9 13 9 9 1 -8 -12 10 -17 101 -28 l52 -7 -11 28 c-15 42 -48 93 -88 141
-51 60 -81 100 -81 110 0 4 -11 17 -24 28 l-24 20 26 29 27 29 -34 -23 c-27
-18 -35 -20 -41 -9 -5 8 -4 19 3 28 10 12 9 13 -11 2 -31 -16 -40 -6 -17 19
17 19 17 19 -14 10 -31 -9 -45 3 -16 14 8 3 15 11 15 18 0 9 -3 9 -12 0 -25
-25 -28 -10 -4 19 14 17 26 37 26 45 0 27 19 14 78 -53 107 -121 114 -128 106
-113 -4 8 -20 34 -36 58 -16 23 -25 42 -21 42 4 0 0 5 -10 11 -9 5 -26 28 -37
50 -11 21 -24 39 -28 39 -4 0 -23 15 -42 33 -57 54 -90 72 -192 107 -72 25
-98 39 -103 54 -5 18 -7 19 -16 6 -10 -14 -19 -14 -91 0 -50 10 -86 23 -93 34
-12 16 -13 16 -19 -1 -6 -14 -9 -15 -15 -4 -6 8 -19 12 -35 9 -14 -3 -26 -1
-26 3 0 5 -7 9 -15 9 -8 0 -15 6 -15 13 0 9 -2 9 -9 -1 -4 -8 -27 -14 -50 -15
-34 -1 -46 3 -62 23 -15 20 -19 22 -19 8z m320 -115 c100 -5 299 -71 300 -99
0 -7 8 -11 18 -10 13 1 17 -6 15 -28 -3 -38 -30 -68 -42 -47 -5 8 -14 10 -21
6 -10 -6 -11 -2 -7 16 18 65 18 75 4 43 -8 -18 -19 -34 -24 -37 -15 -9 -83 15
-83 29 0 8 -6 11 -15 8 -10 -4 -15 0 -15 12 0 13 -3 15 -8 7 -4 -7 -16 -10
-27 -8 -11 2 -23 4 -27 4 -5 1 -8 18 -9 39 -1 38 -3 37 -13 -11 -6 -24 -10
-27 -29 -21 -12 4 -27 7 -34 7 -13 0 -19 12 -34 61 -8 29 -2 56 10 40 3 -5 22
-10 41 -11z m-156 -329 c7 -19 -10 -44 -31 -44 -8 0 -11 -5 -7 -11 4 -8 9 -8
17 0 19 19 42 12 77 -24 37 -38 85 -58 122 -51 37 6 146 61 159 80 4 5 17 2
29 -7 14 -10 18 -17 10 -22 -7 -4 -9 -18 -5 -32 3 -14 2 -22 -3 -19 -5 3 -14
-11 -21 -30 -8 -23 -18 -34 -26 -30 -9 3 -12 0 -8 -10 7 -18 -42 -69 -56 -60
-5 3 -14 -1 -21 -9 -17 -20 -103 -20 -120 0 -10 12 -16 13 -26 4 -10 -8 -18
-9 -27 0 -8 6 -17 8 -20 4 -4 -3 -19 8 -34 25 -44 49 -53 61 -53 72 0 5 -5 10
-11 10 -6 0 -9 10 -8 23 2 12 1 27 -3 32 -3 6 -5 26 -4 45 1 31 4 35 30 37 37
3 47 13 13 13 -15 0 -27 5 -27 10 0 17 47 11 54 -6z"/>
<path d="M6301 4239 c-18 -4 -43 -16 -55 -28 -31 -31 -12 -54 52 -63 28 -4 70
-14 93 -22 67 -23 86 -3 53 53 -29 49 -86 72 -143 60z"/>
<path d="M6026 3522 c-3 -6 -2 -23 4 -39 l10 -28 -19 22 c-16 19 -20 20 -25 7
-4 -10 -2 -13 6 -8 7 4 8 3 4 -5 -8 -12 -19 -8 -49 18 -17 14 -17 13 -8 -12
10 -25 9 -27 -8 -18 -23 13 -35 3 -19 -16 8 -11 7 -12 -6 -7 -9 3 -16 1 -16
-5 0 -7 -11 0 -24 14 -28 30 -44 12 -17 -19 15 -18 15 -18 -4 -8 -11 5 -29 20
-39 31 -11 12 -24 21 -30 21 -6 0 -2 -7 8 -15 16 -12 17 -18 8 -27 -8 -8 -12
-9 -12 -1 0 12 -18 12 -39 -1 -10 -7 -12 -3 -6 15 5 18 4 20 -4 9 -5 -8 -13
-11 -17 -8 -4 4 -16 3 -27 -3 -14 -8 -18 -8 -13 0 10 15 -7 14 -23 -1 -11 -11
-12 -10 -6 2 7 12 6 13 -6 4 -8 -7 -53 -12 -103 -13 -59 -1 -98 -7 -119 -18
l-31 -16 42 -16 c23 -9 54 -27 69 -41 16 -14 41 -25 58 -25 35 -1 87 -24 79
-36 -2 -4 9 -4 26 1 30 9 47 -1 35 -19 -3 -5 -1 -13 5 -16 15 -9 40 14 40 37
0 23 23 33 70 30 48 -3 50 -3 93 0 21 2 41 -1 44 -6 4 -5 0 -6 -8 -1 -10 6
-11 5 -3 -4 8 -8 18 -9 37 -2 20 8 25 7 21 -3 -4 -10 2 -12 21 -8 17 3 30 0
35 -8 7 -11 12 -11 26 1 10 8 15 9 11 3 -4 -7 1 -18 10 -25 13 -11 15 -11 9
-1 -6 10 -1 11 20 6 16 -4 38 -8 49 -8 11 -1 26 -6 34 -10 10 -7 12 -5 7 5 -4
8 -1 6 6 -3 10 -11 19 -14 28 -8 10 6 23 2 40 -13 14 -12 19 -14 11 -4 -17 22
2 23 23 1 13 -12 16 -13 16 -1 0 7 7 14 15 14 11 0 12 -4 4 -13 -8 -10 -5 -13
13 -12 13 1 29 6 36 11 8 6 12 6 12 -2 0 -6 7 -11 15 -11 9 0 12 6 8 18 -4 11
1 8 15 -8 15 -16 20 -19 16 -7 -3 9 -1 17 5 17 6 0 11 -7 11 -16 0 -8 5 -12
10 -9 6 4 7 12 3 18 -3 7 3 4 14 -5 20 -18 48 -25 39 -10 -3 5 1 9 9 9 8 0 12
-4 9 -9 -3 -4 5 -8 18 -8 13 -1 46 -2 75 -4 29 -1 50 1 47 6 -3 4 2 8 10 8 9
0 16 -5 16 -11 0 -5 5 -7 10 -4 6 4 16 -8 24 -25 10 -25 14 -29 19 -15 9 21
45 12 70 -19 10 -11 16 -15 12 -8 -3 6 -1 12 5 12 6 0 15 -11 20 -25 5 -14 15
-25 21 -25 6 0 9 7 5 15 -4 13 -2 14 14 5 11 -6 20 -16 20 -22 0 -7 5 -6 15 2
12 10 18 10 30 0 8 -7 12 -17 8 -24 -5 -8 -3 -8 8 0 18 15 69 15 69 0 0 -8 2
-8 8 0 13 20 71 44 107 44 31 0 35 2 26 18 -6 12 -31 23 -67 31 -33 8 -67 23
-81 37 -12 13 -23 20 -23 16 -1 -4 -7 4 -14 17 -8 15 -16 20 -20 12 -4 -6 -2
-11 5 -11 7 0 9 -3 6 -7 -4 -3 -17 2 -29 13 -19 17 -21 17 -15 2 3 -10 1 -20
-5 -24 -7 -5 -8 -2 -3 6 6 10 4 12 -10 6 -16 -6 -16 -4 -4 11 12 15 12 16 -3
10 -9 -3 -26 2 -39 14 -25 22 -39 18 -19 -6 11 -13 10 -14 -4 -9 -9 3 -16 14
-16 24 0 10 -7 21 -16 24 -10 4 -14 12 -9 24 5 13 4 14 -6 5 -10 -10 -17 -9
-31 4 -18 16 -18 16 -12 -3 6 -15 5 -17 -7 -8 -8 7 -22 8 -34 3 -36 -14 -39
-9 -12 19 32 33 33 38 8 38 -11 0 -17 -4 -14 -9 3 -5 -4 -11 -16 -14 -11 -3
-19 -9 -16 -13 3 -5 -4 -6 -15 -3 -11 3 -20 9 -20 14 0 5 6 6 13 4 8 -3 13 6
14 26 3 33 0 33 -51 -13 -10 -10 -24 -14 -30 -10 -7 4 -4 8 7 10 9 2 15 7 12
12 -3 5 -12 7 -20 4 -12 -5 -14 0 -8 26 4 24 3 31 -5 26 -7 -4 -12 -13 -12
-21 0 -8 -5 -17 -12 -21 -7 -4 -8 -3 -4 4 11 19 -5 14 -21 -5 -13 -16 -14 -15
-10 12 4 26 3 27 -7 12 -7 -9 -16 -14 -19 -10 -4 3 -13 1 -21 -6 -11 -9 -15
-9 -18 0 -5 14 -38 21 -38 8 0 -5 -4 -9 -8 -9 -5 0 -9 13 -9 30 0 16 4 27 9
24 4 -3 8 2 8 10 0 26 -17 18 -39 -16 l-20 -33 -7 43 c-6 38 -24 60 -24 30 0
-10 -3 -9 -9 1 -7 11 -10 9 -15 -7 -5 -14 -12 -18 -28 -14 -14 3 -19 1 -14 -6
4 -7 3 -12 -3 -12 -5 0 -13 5 -16 11 -5 6 -12 4 -20 -8 -13 -17 -14 -16 -24
10 -6 16 -11 35 -11 43 0 16 -19 20 -21 4 -1 -5 -2 -16 -3 -22 -1 -7 -7 -12
-14 -10 -7 1 -12 -6 -13 -15 0 -11 -3 -13 -6 -5 -2 6 -9 10 -14 6 -5 -3 -9 1
-9 8 -1 9 -5 7 -14 -5 -12 -16 -14 -16 -20 -2 -4 11 -2 14 7 9 8 -5 8 -2 -2 9
-14 18 -32 14 -27 -6 1 -7 1 -9 -1 -4 -8 14 -25 7 -19 -8 12 -33 -11 -13 -31
26 -11 22 -24 36 -27 31z"/>
<path d="M5827 3019 c-9 -6 -15 -15 -11 -20 10 -17 160 -87 220 -103 109 -28
458 -79 549 -79 86 -1 188 16 211 34 6 5 15 5 19 1 5 -4 5 -1 1 6 -5 8 -12 10
-19 4 -7 -4 -22 -7 -34 -6 -13 1 -20 -3 -16 -9 4 -6 -2 -8 -14 -5 -11 3 -28 1
-37 -4 -11 -6 -16 -5 -16 3 0 8 -5 7 -17 -2 -15 -12 -16 -12 -10 6 6 17 5 18
-5 5 -15 -17 -26 -19 -47 -6 -10 6 -12 5 -7 -2 4 -7 2 -12 -3 -12 -6 0 -11 6
-11 13 0 8 -4 7 -10 -3 -7 -10 -13 -11 -17 -5 -5 6 -29 11 -55 10 -27 0 -48 4
-48 8 0 5 -5 5 -11 1 -6 -3 -15 -1 -19 7 -7 10 -11 10 -24 0 -14 -11 -16 -11
-16 5 0 17 -1 17 -16 -2 -13 -16 -15 -16 -10 -1 3 9 1 17 -4 17 -6 0 -10 -6
-10 -12 0 -7 -5 -5 -11 5 -8 14 -14 16 -25 6 -11 -9 -14 -9 -14 0 0 7 -4 9
-10 6 -5 -3 -10 0 -10 7 -1 8 -6 6 -15 -6 -13 -18 -15 -18 -15 -3 0 15 -4 16
-20 7 -15 -8 -20 -8 -18 1 2 6 -3 14 -11 17 -9 3 -11 0 -7 -9 4 -8 0 -5 -8 5
-15 19 -16 19 -16 1 0 -18 -1 -18 -15 1 -8 11 -15 14 -15 7 0 -7 -5 -13 -11
-13 -5 0 -8 4 -5 9 5 8 -12 16 -52 26 -6 2 -10 -1 -6 -6 8 -14 -9 -11 -34 7
-20 14 -27 12 -23 -9 1 -5 -3 -6 -9 -2 -6 3 -8 11 -5 16 5 8 -9 13 -18 7 -2
-2 -12 5 -22 15 -12 13 -26 16 -43 12 -21 -5 -23 -4 -14 8 15 18 4 29 -18 17
-20 -11 -31 -4 -23 16 6 16 4 17 -20 3z"/>
<path d="M5941 2888 c-2 -17 24 -58 36 -58 8 0 12 -4 9 -8 -2 -4 5 -9 17 -10
12 -1 60 -13 107 -27 91 -28 109 -32 180 -39 54 -6 77 -11 111 -24 14 -6 43
-9 65 -7 47 4 117 29 107 38 -6 6 11 11 29 8 4 0 5 6 2 14 -3 8 -26 17 -52 20
-102 13 -431 66 -506 81 -61 12 -80 13 -86 4 -6 -9 -9 -9 -13 1 -3 8 -6 11 -6
7z"/>
<path d="M10308 8945 c93 -101 191 -256 231 -365 33 -89 50 -178 71 -372 11
-101 25 -198 31 -217 6 -19 35 -59 63 -90 92 -100 118 -163 137 -325 11 -104
14 -389 4 -492 l-7 -72 61 -36 c80 -47 188 -133 236 -188 48 -56 130 -226 146
-303 27 -134 8 -302 -52 -461 -27 -70 -22 -94 19 -94 23 0 38 -10 66 -45 37
-44 37 -45 35 -127 -2 -74 0 -88 23 -123 31 -49 73 -154 89 -220 6 -28 11 -94
11 -147 -1 -128 -28 -232 -98 -377 -30 -62 -53 -118 -51 -125 3 -6 48 -38 102
-71 53 -33 104 -67 113 -75 9 -8 41 -35 71 -60 72 -59 200 -214 262 -317 142
-234 184 -415 155 -665 l-9 -77 54 -59 c158 -171 194 -422 94 -648 -13 -30
-33 -68 -45 -84 -32 -45 -26 -61 41 -105 140 -92 271 -258 398 -505 106 -208
171 -375 182 -464 4 -39 19 -99 33 -132 86 -209 251 -788 310 -1084 27 -135
66 -381 66 -416 0 -8 109 -4 114 5 6 9 -8 82 -46 236 -20 79 -42 197 -72 370
-8 50 -17 99 -20 110 -7 26 -68 232 -96 320 -24 76 -26 80 -64 173 -14 35 -26
68 -26 73 0 6 -9 28 -20 51 -11 22 -17 45 -14 49 3 5 1 9 -5 9 -5 0 -13 15
-17 32 -4 18 -10 40 -12 48 -3 8 -6 47 -7 85 -2 39 -6 79 -10 90 -28 77 -61
162 -91 232 -19 45 -34 86 -34 92 0 6 -4 11 -9 11 -5 0 -12 12 -15 26 -4 14
-11 31 -17 37 -15 18 -89 137 -89 143 0 3 -29 35 -64 70 -36 36 -75 81 -88
102 -12 20 -55 71 -96 112 -96 97 -98 102 -76 154 10 22 22 47 28 55 16 21 19
41 19 116 1 151 -5 233 -23 330 -22 119 -27 133 -55 162 -12 12 -34 45 -49 73
-28 51 -28 53 -17 130 23 154 -11 352 -88 513 -39 80 -70 137 -82 147 -3 3
-21 28 -39 55 -19 28 -37 52 -42 53 -4 2 -8 9 -8 16 0 12 -184 199 -255 258
-107 89 -109 100 -51 216 43 85 50 121 35 171 -10 32 -8 55 10 137 21 95 22
158 6 299 -7 60 -77 246 -96 253 -5 2 -9 9 -9 17 0 7 -10 34 -22 61 -11 27
-21 50 -20 51 1 2 -8 24 -19 50 -22 51 -21 86 2 176 7 30 9 71 5 110 -4 34
-10 87 -12 117 -6 55 -35 122 -166 385 -53 106 -152 265 -166 265 -4 0 -14 21
-20 47 -16 59 -85 175 -134 224 -64 64 -68 82 -73 267 -2 118 -9 194 -24 259
-19 87 -50 165 -70 177 -5 4 -17 28 -27 54 -10 26 -27 59 -37 73 -17 24 -22
76 -15 144 4 34 -28 149 -48 176 -13 18 -24 41 -24 51 0 9 -16 61 -35 115 -19
54 -35 104 -35 112 0 41 -121 256 -152 269 -5 2 -8 7 -8 12 0 20 -160 170
-180 170 -19 0 -15 -7 28 -55z"/>
<path d="M1805 8242 c-11 -2 -26 -9 -32 -14 -9 -7 -13 -7 -13 1 0 7 -4 9 -10
6 -5 -3 -10 -13 -10 -21 0 -8 4 -13 8 -10 5 3 6 -9 4 -27 -4 -28 -6 -29 -13
-12 -5 13 -6 5 -3 -20 4 -22 10 -44 14 -48 10 -12 41 3 33 17 -4 8 -3 8 6 0
14 -13 76 -3 93 14 6 6 17 8 26 5 10 -4 13 -2 8 5 -4 7 -2 12 3 12 6 0 11 -6
11 -12 0 -9 4 -8 10 2 6 10 10 11 10 3 0 -7 5 -13 11 -13 6 0 8 7 5 16 -3 8
-2 12 3 9 5 -3 12 -1 15 4 3 5 -6 12 -20 15 -18 5 -24 11 -20 23 5 13 4 14 -9
3 -13 -11 -14 -10 -9 4 4 10 1 16 -9 16 -8 0 -17 4 -19 8 -4 11 -66 20 -93 14z"/>
<path d="M4650 7848 c-119 -157 -340 -270 -554 -285 -119 -8 -137 -19 -45 -27
132 -12 301 23 401 81 80 48 181 156 227 241 22 41 5 35 -29 -10z"/>
<path d="M2428 7501 c-180 -134 -262 -257 -299 -446 -19 -96 -17 -334 4 -468
9 -59 17 -110 17 -112 0 -3 3 -5 8 -5 4 0 3 62 -1 138 -9 154 -3 367 14 457
29 161 116 301 254 413 84 68 99 82 88 81 -4 0 -43 -26 -85 -58z"/>
<path d="M454 6995 c3 -88 20 -138 90 -260 50 -87 205 -245 301 -307 105 -67
419 -213 441 -204 9 3 11 0 7 -11 -4 -10 -2 -14 5 -10 14 9 63 -13 56 -25 -3
-5 0 -7 8 -6 7 2 12 -2 11 -9 -2 -7 3 -10 11 -7 12 5 146 -134 220 -229 16
-20 34 -37 39 -37 4 0 1 7 -7 16 -9 8 -16 19 -16 23 0 4 -9 17 -21 30 -37 40
-15 31 43 -17 31 -26 62 -57 69 -69 6 -12 16 -20 21 -17 4 3 8 -1 8 -9 0 -8 7
-20 16 -28 36 -30 124 -250 139 -349 1 -8 6 -39 10 -67 12 -82 22 -53 13 34
-10 91 -49 245 -78 311 -55 124 -218 307 -323 362 -34 19 -63 37 -65 42 -2 4
-10 8 -18 8 -7 0 -39 16 -69 36 -65 41 -204 111 -290 144 -33 13 -82 37 -108
52 -26 15 -50 28 -52 28 -3 0 -36 23 -75 50 -39 28 -72 50 -75 50 -15 0 -195
207 -195 224 0 2 -16 28 -35 57 -19 29 -32 56 -29 61 3 4 0 8 -6 8 -7 0 -10 6
-7 13 3 8 -1 27 -9 43 -7 16 -18 56 -23 89 l-10 60 3 -80z"/>
<path d="M400 6584 c1 -14 127 -152 211 -229 42 -39 123 -101 180 -140 57 -38
133 -93 169 -121 69 -55 129 -93 195 -123 22 -10 50 -29 62 -42 12 -13 36 -40
53 -59 l32 -35 -33 50 c-19 28 -32 51 -30 53 2 1 1 15 -2 30 -10 50 -73 98
-246 186 -242 123 -289 149 -356 203 -67 54 -154 138 -202 197 -18 22 -33 35
-33 30z"/>
<path d="M1401 6123 c8 -10 20 -24 27 -32 108 -113 193 -322 177 -430 -15 -99
-69 -172 -165 -222 -39 -21 -46 -27 -25 -22 17 3 40 10 53 14 30 11 28 -2 -5
-43 -77 -92 -171 -141 -391 -202 -146 -41 -221 -95 -256 -184 -20 -53 -21
-112 -2 -112 8 0 16 -7 20 -15 9 -23 23 -18 32 13 22 79 57 153 84 177 l23 20
-7 -30 c-4 -16 -10 -65 -13 -108 -7 -95 11 -150 70 -215 82 -89 203 -132 368
-133 75 0 94 3 137 24 32 15 27 29 -5 16 -56 -22 -286 16 -372 61 -48 25 -94
67 -87 78 3 5 25 14 48 20 24 5 75 17 113 26 94 23 221 87 284 144 28 26 51
51 51 55 0 4 -6 3 -12 -3 -95 -79 -181 -128 -293 -167 -83 -30 -104 -35 -176
-48 -40 -7 -52 15 -47 88 3 53 10 72 43 122 36 52 53 66 165 131 145 84 211
144 271 246 76 129 103 211 103 308 0 73 -5 97 -33 169 -19 46 -44 99 -56 116
-37 55 -119 154 -129 154 -5 1 -2 -7 5 -16z"/>
<path d="M2612 5755 c7 -16 18 -39 24 -50 22 -36 111 -328 135 -440 20 -93 24
-137 23 -290 0 -162 -3 -190 -27 -275 -31 -113 -98 -279 -151 -374 -62 -110
-178 -257 -286 -359 -137 -131 -269 -215 -560 -362 -80 -40 -187 -96 -239
-124 -52 -28 -97 -51 -101 -51 -4 0 -16 -8 -28 -17 -11 -10 -33 -27 -47 -38
-15 -11 -30 -22 -34 -25 -22 -17 -107 -147 -103 -159 3 -8 0 -11 -6 -8 -13 9
-22 -26 -22 -93 -1 -58 76 -320 93 -320 9 0 3 72 -9 113 -9 30 13 18 29 -15
38 -82 42 -132 22 -282 -5 -37 -25 -86 -36 -86 -5 0 -6 -7 -3 -15 4 -8 1 -15
-5 -15 -6 0 -11 -5 -11 -10 0 -6 -14 -41 -31 -78 -17 -36 -34 -83 -36 -103 -8
-57 26 -70 177 -68 66 0 123 5 126 10 3 5 -5 9 -18 9 -49 0 -68 38 -68 134 0
41 -4 77 -8 80 -5 3 -28 -15 -52 -39 -24 -25 -48 -45 -53 -45 -19 0 52 109
108 165 77 77 145 112 335 175 323 107 560 254 700 435 46 60 48 79 3 48 -106
-74 -269 -145 -547 -240 -204 -69 -294 -110 -372 -168 -47 -36 -60 -49 -147
-145 -21 -23 -41 -39 -44 -37 -2 3 2 38 10 79 9 40 21 120 28 178 13 101 14
103 24 67 l11 -38 34 36 c47 48 139 91 355 165 350 120 515 202 697 349 167
134 273 274 387 512 118 246 155 385 154 589 -2 242 -62 504 -172 742 -17 37
-42 94 -55 127 -40 94 -167 331 -193 360 l-23 26 12 -30z"/>
<path d="M2644 5477 c15 -61 28 -283 22 -384 -6 -119 -34 -278 -60 -352 -20
-54 -12 -68 9 -18 8 21 20 37 27 37 6 0 8 3 5 7 -4 3 -3 11 2 17 24 29 54 223
53 346 -1 157 -31 370 -54 370 -6 0 -8 -10 -4 -23z"/>
<path d="M9900 4844 c0 -37 21 -137 52 -243 22 -76 29 -116 26 -155 -5 -56
-65 -212 -178 -461 -85 -188 -135 -315 -145 -367 -11 -59 0 -45 29 37 15 41
73 171 130 288 106 216 192 434 202 510 5 34 -1 61 -31 137 -21 52 -48 136
-61 185 -13 50 -23 81 -24 69z"/>
<path d="M10848 4769 c-3 -53 5 -86 30 -129 59 -102 241 -308 261 -295 6 3 10
2 9 -3 -2 -5 13 -22 32 -38 24 -19 29 -21 16 -6 -11 12 -16 22 -11 22 4 0 2 6
-4 13 -8 10 -7 14 4 14 8 0 11 -5 8 -10 -4 -6 1 -8 11 -4 10 4 21 7 24 7 4 0
0 5 -8 10 -13 9 -13 10 0 10 18 0 41 -14 43 -26 1 -5 6 -8 11 -6 5 2 17 -5 27
-14 11 -10 19 -12 19 -6 0 7 -4 12 -9 12 -5 0 -31 21 -58 48 -52 49 -66 61
-148 127 -28 21 -53 45 -58 52 -4 6 -14 19 -23 27 -19 19 -55 100 -60 135 -2
14 -5 36 -7 48 -5 32 -14 38 -22 13 -13 -39 -47 -92 -56 -83 -4 4 -10 28 -14
53 -8 52 -14 64 -17 29z"/>
<path d="M3143 4498 c1 -468 -68 -789 -248 -1163 -140 -291 -348 -499 -640
-640 -51 -24 -209 -84 -352 -131 -142 -47 -274 -94 -293 -104 -86 -44 -132
-142 -97 -209 12 -24 49 -39 44 -19 -1 5 50 21 113 34 63 13 202 48 309 79
107 30 198 55 202 55 25 0 301 111 404 162 365 182 669 468 824 774 22 44 55
132 73 195 31 106 33 124 32 259 0 146 -12 233 -55 405 -28 111 -61 217 -65
212 -2 -2 4 -55 15 -118 20 -116 32 -261 33 -379 1 -185 -3 -250 -13 -250 -6
0 -8 7 -5 16 12 30 -14 282 -44 430 -43 215 -111 444 -131 444 -5 0 -4 -12 1
-26 6 -14 12 -40 14 -57 2 -18 8 -41 12 -51 6 -16 4 -18 -10 -13 -10 4 -15 3
-11 -3 3 -6 14 -10 23 -11 10 0 12 -3 5 -5 -7 -3 -9 -12 -6 -20 3 -8 0 -14 -6
-14 -6 0 -10 3 -10 8 3 19 -2 26 -11 12 -7 -11 -8 -9 -6 11 1 13 6 31 11 39 6
10 4 12 -8 7 -12 -5 -19 1 -23 19 -4 14 -4 28 0 31 3 3 2 11 -3 17 -5 6 -25
62 -44 124 l-34 113 0 -233z m217 -545 c0 -12 0 -34 0 -48 0 -13 4 -27 9 -30
6 -3 6 -18 1 -35 -5 -17 -6 -30 -2 -30 8 0 7 -194 -2 -290 -9 -102 -78 -285
-143 -382 -23 -33 -116 -131 -205 -214 -99 -93 -194 -167 -293 -228 -50 -31
-96 -60 -102 -66 -7 -6 -13 -8 -13 -5 0 3 -10 1 -21 -6 -12 -6 -36 -15 -53
-20 -29 -8 -30 -7 -12 6 11 8 27 15 35 15 36 0 292 248 360 349 63 93 205 372
241 476 17 50 45 146 61 215 39 164 38 160 55 153 9 -3 14 2 14 15 0 11 -7 22
-15 26 -8 3 -15 11 -14 18 0 10 2 10 6 1 8 -20 23 -15 16 5 -7 16 -6 16 11 -1
10 -9 22 -15 27 -12 14 9 11 25 -5 25 -9 0 -13 9 -11 25 1 14 -2 28 -6 31 -5
3 -9 10 -9 15 0 6 5 7 10 4 6 -3 10 -4 10 -1 0 2 3 11 6 20 4 11 0 16 -12 16
-16 0 -17 2 -4 10 20 12 59 -25 60 -57z"/>
<path d="M10526 4463 c11 -73 3 -126 -41 -265 -26 -83 -63 -237 -89 -377 -25
-130 -56 -290 -70 -356 -13 -66 -29 -177 -36 -247 -22 -251 -31 -264 -330
-463 -124 -82 -289 -198 -365 -256 -190 -143 -339 -244 -465 -314 -173 -96
-330 -211 -535 -393 -106 -95 -261 -222 -383 -316 -255 -196 -341 -306 -376
-481 -42 -216 -86 -581 -101 -845 -4 -63 -9 -123 -11 -132 -5 -16 4 -18 86
-18 l91 0 172 128 c95 71 215 163 267 205 52 42 100 77 106 77 17 0 45 -69 38
-95 -3 -14 -10 -22 -15 -19 -5 3 -9 -6 -9 -19 0 -18 -11 -30 -50 -51 -27 -15
-97 -62 -155 -104 -57 -42 -119 -87 -137 -100 l-33 -22 418 0 419 0 -21 27
c-133 172 -208 313 -289 538 -98 272 -93 625 11 788 57 89 181 192 307 257 67
34 231 93 238 85 3 -3 -39 -50 -94 -104 -54 -54 -124 -136 -155 -182 -63 -93
-93 -149 -82 -149 5 0 3 -4 -2 -8 -14 -10 -35 -59 -34 -80 0 -11 4 -8 12 9 7
15 16 27 21 27 5 0 21 26 35 57 15 32 31 58 36 59 6 0 9 3 9 6 -1 3 11 15 26
28 l28 22 -10 -32 c-6 -18 -17 -46 -24 -63 -7 -16 -14 -44 -17 -61 -8 -51 19
-35 54 31 30 59 112 171 153 210 67 65 219 193 299 253 52 39 101 78 110 87 9
9 17 14 17 12 0 -13 -31 -76 -40 -82 -5 -3 -10 -15 -10 -26 0 -10 -4 -19 -10
-19 -5 0 -7 -8 -4 -17 5 -14 4 -15 -4 -4 -12 17 -10 18 -92 -79 -30 -36 -85
-99 -121 -140 -157 -179 -192 -245 -217 -412 -24 -162 -23 -414 2 -488 53
-155 125 -261 288 -422 l128 -128 49 0 49 0 1 77 c0 43 3 101 6 128 3 28 10
210 15 405 10 331 28 568 50 650 9 34 9 33 5 -10 -13 -142 -17 -492 -6 -640
14 -194 46 -447 67 -542 l16 -68 95 0 95 0 -6 28 c-39 188 -53 869 -25 1232
11 155 43 393 66 495 29 133 108 283 206 391 209 231 638 425 885 400 34 -4
126 -22 205 -41 211 -51 299 -61 403 -46 48 7 106 19 130 27 53 18 69 11 181
-73 115 -86 213 -204 297 -356 54 -97 85 -178 146 -372 29 -93 85 -255 125
-360 40 -104 89 -240 108 -300 49 -153 116 -422 115 -467 0 -20 3 -41 6 -47 4
-5 1 -13 -5 -17 -7 -4 -10 -3 -7 2 3 5 2 18 -3 29 -7 17 -8 17 -5 -5 2 -14 7
-33 11 -44 5 -11 3 -21 -5 -26 -8 -5 -9 -9 -1 -14 6 -4 11 -13 11 -19 0 -7 -4
-6 -10 3 -8 12 -10 10 -10 -8 0 -13 4 -21 9 -18 5 4 8 -2 7 -11 -3 -20 -26
-31 -26 -12 0 7 -3 10 -6 7 -3 -4 2 -17 10 -31 9 -13 14 -32 10 -41 -6 -16
-24 -13 -24 5 0 6 5 7 10 4 6 -3 10 -1 10 4 0 6 -4 11 -9 11 -17 0 -23 -20
-11 -35 7 -8 7 -15 1 -19 -16 -10 -1 -35 17 -29 10 3 13 1 7 -4 -5 -4 -10 -30
-10 -58 0 -44 -3 -50 -20 -47 -16 3 -17 2 -6 -12 7 -9 17 -13 22 -10 5 3 9 -2
9 -11 0 -9 -4 -14 -9 -11 -5 4 -12 0 -14 -6 -3 -7 -6 -4 -6 7 -1 17 -3 17 -11
5 -7 -10 -6 -18 3 -25 21 -18 19 -43 -5 -51 -22 -7 -22 -7 -3 -15 11 -4 73 -8
138 -8 l118 -1 -5 43 c-63 491 -163 870 -370 1404 -20 51 -36 107 -36 125 0
18 0 51 -1 72 0 41 -54 176 -142 351 -101 204 -244 379 -402 496 -111 83 -115
87 -109 103 13 34 -9 34 -74 0 -171 -89 -308 -97 -607 -39 -322 63 -444 51
-690 -70 -203 -100 -368 -232 -505 -405 -104 -132 -123 -166 -329 -575 -220
-437 -284 -538 -473 -749 l-133 -149 -3 45 c-4 62 11 94 122 263 156 235 247
399 318 570 21 52 32 94 20 77 -7 -11 -10 -9 -15 7 -3 14 -10 19 -21 15 -25
-9 -19 6 20 61 58 80 121 179 150 236 14 29 50 83 78 119 59 74 176 238 176
246 0 2 -10 -1 -22 -8 -13 -7 -33 -13 -44 -15 -40 -3 -15 34 105 155 125 127
121 123 229 196 40 27 71 51 69 53 -7 6 -126 -66 -192 -116 -33 -25 -117 -103
-187 -173 -228 -229 -427 -349 -668 -404 -51 -11 -75 -23 -107 -53 -36 -35
-49 -40 -107 -46 -170 -18 -297 -133 -376 -338 -31 -80 -77 -260 -79 -309 -2
-49 -4 -57 -12 -53 -9 6 -7 25 5 44 7 10 5 12 -3 6 -31 -19 -64 -156 -63 -260
2 -110 47 -273 116 -420 70 -146 102 -232 92 -243 -9 -8 -46 20 -84 63 -68 78
-133 258 -158 439 -15 111 -9 241 17 380 17 95 84 275 138 373 28 50 51 96 51
102 0 36 111 183 170 225 16 12 21 20 12 23 -6 3 -9 9 -6 14 3 6 12 5 22 -3
11 -9 14 -10 8 -1 -30 51 199 213 357 252 67 16 235 26 222 13 -5 -5 -68 -22
-140 -37 -136 -29 -247 -66 -318 -108 -47 -28 -120 -97 -111 -106 3 -3 8 -1
12 5 9 13 87 66 132 89 19 10 92 28 161 41 134 25 274 70 349 111 71 40 114
76 280 238 165 160 231 214 350 288 137 84 351 167 480 186 30 5 42 9 27 10
-28 1 -28 1 20 40 113 89 220 230 248 325 8 27 15 72 15 100 0 118 -87 384
-187 576 -36 69 -90 171 -120 228 -30 57 -53 105 -51 107 4 5 118 -150 118
-160 0 -4 8 -19 19 -33 38 -55 143 -264 171 -343 34 -94 60 -210 60 -271 0
-65 16 -81 29 -30 32 117 4 458 -54 655 -25 86 -69 197 -78 197 -3 0 4 -28 15
-62 54 -174 86 -324 103 -491 8 -77 -7 -67 -30 20 -23 86 -84 238 -133 334
-81 158 -249 449 -259 449 -1 0 0 -17 3 -37z m-2089 -2955 c0 -13 -1 -17 -4
-11 -3 8 -13 2 -29 -16 -27 -32 -32 -50 -9 -31 13 11 14 10 8 -6 -6 -17 -5
-18 13 -4 17 14 18 14 6 -2 -9 -11 -10 -18 -2 -23 5 -3 10 0 10 7 0 11 2 11 9
0 9 -16 -37 -114 -51 -106 -9 6 -11 -10 -2 -19 4 -4 22 18 41 48 60 96 49 56
-15 -54 -22 -38 -27 -42 -38 -27 -10 14 -12 15 -17 1 -4 -8 -1 -14 5 -12 6 1
12 -3 15 -10 6 -15 -133 -181 -193 -229 -26 -21 -63 -56 -82 -77 -19 -21 -40
-36 -46 -34 -6 2 -17 -10 -24 -27 -11 -25 -15 -28 -23 -16 -8 12 -9 10 -4 -6
6 -25 -31 -78 -48 -67 -6 4 -8 0 -4 -10 3 -10 3 -17 -1 -17 -4 0 -13 -13 -20
-30 -8 -16 -21 -30 -30 -31 -10 0 -12 -3 -6 -5 8 -3 -1 -29 -24 -74 -20 -37
-40 -66 -44 -64 -4 3 -5 10 -3 17 2 7 6 41 10 77 7 75 21 172 36 241 9 39 19
55 57 86 57 45 138 127 212 213 30 35 78 89 106 119 29 31 82 93 119 139 37
45 68 82 69 82 1 0 2 -10 3 -22z m-251 -114 c-19 -14 -19 -14 1 -14 12 0 23 6
26 13 2 6 7 9 11 5 10 -9 -26 -48 -37 -41 -6 3 -7 1 -3 -6 5 -7 -28 -58 -81
-128 -96 -128 -230 -272 -219 -236 4 12 9 31 11 43 2 12 21 56 42 98 31 63 58
97 146 185 60 60 112 106 115 102 4 -4 -2 -13 -12 -21z m209 -274 c-9 -17 -13
-36 -9 -42 4 -6 3 -8 -3 -5 -6 4 -16 0 -23 -8 -10 -12 -10 -18 0 -30 9 -10 9
-15 1 -15 -6 0 -11 -5 -11 -11 0 -5 4 -8 8 -5 14 8 8 -42 -7 -56 -11 -11 -12
-10 -2 8 8 17 7 25 -3 33 -11 9 -12 6 -9 -12 3 -14 -2 -29 -11 -36 -18 -15
-20 -8 -6 19 7 13 7 21 0 25 -6 4 -10 3 -9 -2 4 -21 -2 -34 -12 -27 -8 4 -8 0
0 -15 7 -13 8 -21 2 -21 -6 0 -7 -7 -4 -17 5 -12 3 -14 -7 -8 -8 5 -11 4 -6
-3 3 -5 0 -13 -6 -15 -8 -3 -6 -6 5 -6 9 -1 17 4 17 11 0 12 15 2 15 -10 1 -4
6 -17 13 -29 13 -24 13 -85 0 -77 -4 3 -8 -2 -8 -10 0 -24 -22 -31 -37 -11 -7
11 -13 14 -13 9 0 -6 5 -15 12 -22 6 -6 8 -15 4 -19 -4 -4 -11 -1 -16 7 -6 9
-10 10 -10 3 0 -7 8 -17 18 -22 16 -10 16 -10 -1 -11 -10 0 -15 -5 -12 -10 5
-8 11 -8 19 -1 7 6 16 8 20 4 4 -4 4 1 0 12 -7 17 -6 18 8 7 13 -10 17 -10 22
3 3 8 10 15 16 15 18 0 8 -72 -12 -92 -14 -14 -15 -23 -8 -42 6 -17 6 -27 -2
-32 -7 -5 -8 -2 -4 7 4 8 1 6 -7 -3 -8 -10 -18 -14 -22 -10 -5 4 -5 2 -1 -5 4
-7 13 -10 21 -6 8 3 15 0 15 -6 0 -6 -3 -10 -7 -10 -21 3 -32 -2 -27 -14 3 -8
0 -26 -6 -42 -7 -19 -8 -31 0 -39 18 -18 11 -43 -21 -67 -17 -13 -47 -38 -66
-56 -19 -18 -40 -33 -47 -33 -7 0 -30 25 -51 55 -61 89 -80 220 -51 356 24
114 50 154 182 284 67 66 131 135 143 153 28 40 36 42 16 2z m-406 -730 c7
-30 28 -85 46 -122 l34 -67 -49 -36 c-27 -20 -50 -39 -52 -43 -3 -8 -63 -52
-71 -52 -2 0 -17 28 -32 62 -32 72 -44 145 -33 207 9 51 74 191 110 236 l23
30 6 -81 c3 -44 12 -104 18 -134z"/>
<path d="M150 4447 c0 -27 236 -272 292 -302 26 -14 62 -38 80 -53 l33 -27
-16 25 c-9 14 -35 58 -59 98 -38 65 -50 77 -95 96 -71 32 -153 89 -197 139
-27 30 -38 37 -38 24z"/>
<path d="M633 3973 c20 -38 47 -67 104 -111 30 -24 44 -43 47 -65 3 -18 8 -50
11 -72 5 -27 18 -50 43 -75 86 -83 191 -149 228 -145 32 3 30 -11 -8 -71 -125
-196 -147 -350 -79 -549 51 -146 62 -201 62 -304 0 -86 2 -94 14 -77 42 56 31
188 -29 361 -42 118 -46 138 -46 223 0 107 26 201 87 312 68 124 93 173 93
185 0 6 -18 17 -40 24 -29 9 -47 23 -65 51 -14 22 -25 46 -25 54 0 10 -6 13
-15 10 -9 -4 -15 0 -15 9 0 8 -7 17 -15 21 -23 9 -18 -10 13 -46 37 -43 44
-65 31 -90 -9 -16 -17 -19 -47 -13 -110 20 -157 67 -155 150 1 27 4 61 5 74 2
19 -8 30 -60 62 -34 21 -83 55 -109 76 l-46 38 16 -32z"/>
<path d="M11650 3560 c0 -6 7 -13 15 -16 8 -4 15 -12 15 -19 0 -7 16 -39 35
-71 65 -107 85 -222 60 -350 -15 -79 -33 -124 -50 -124 -6 0 -20 18 -32 41
-15 29 -22 36 -26 25 -4 -9 -1 -16 6 -16 8 0 7 -4 -3 -9 -20 -13 -34 -2 -19
15 9 11 8 20 -6 40 -9 15 -13 24 -8 21 5 -4 10 0 10 8 0 8 -4 12 -9 9 -5 -3
-8 9 -7 28 1 18 -3 45 -9 61 -7 15 -9 27 -6 27 3 0 -3 15 -12 33 -9 17 -20 39
-25 47 -93 180 -120 224 -129 213 -3 -4 -14 -51 -24 -103 -32 -172 -127 -373
-235 -491 -62 -70 -77 -79 -114 -72 -34 7 -34 14 4 69 38 56 109 208 108 232
0 10 -6 4 -15 -15 -21 -49 -37 -53 -30 -7 4 22 9 66 12 99 l5 60 -53 -105
c-86 -171 -205 -270 -373 -311 l-70 -18 95 -1 c52 -1 104 -3 115 -5 11 -2 47
-6 80 -10 33 -3 98 -10 145 -15 136 -15 377 -12 466 6 154 31 252 81 300 154
46 69 53 160 13 160 -10 0 -19 -4 -19 -10 0 -5 -3 -10 -7 -10 -5 0 -16 42 -26
93 -18 95 -81 239 -118 273 -11 9 -19 22 -19 28 0 7 -9 19 -20 29 -11 9 -20
12 -20 7z"/>
<path d="M1945 2125 c-208 -53 -300 -67 -472 -72 l-163 -6 -25 -33 c-14 -19
-21 -34 -16 -34 6 0 11 4 11 9 0 16 63 40 81 31 9 -5 57 -10 108 -11 50 -1 91
-5 91 -10 0 -8 -70 -67 -123 -104 -12 -8 -18 -17 -15 -20 2 -3 40 20 84 52
111 79 155 98 269 117 55 10 111 20 123 23 20 5 17 -1 -18 -37 -48 -49 -47
-67 2 -21 37 35 113 91 173 126 50 30 48 30 -110 -10z"/>
<path d="M785 1941 c-45 -27 -65 -54 -72 -94 -10 -67 4 -102 72 -177 36 -38
65 -73 65 -77 0 -4 -20 -53 -45 -108 -63 -142 -76 -203 -77 -358 -2 -149 12
-214 67 -335 90 -194 237 -374 429 -527 21 -16 46 -38 57 -47 10 -9 36 -26 59
-38 36 -18 40 -23 33 -48 -9 -35 -6 -99 7 -120 11 -20 11 -17 11 68 0 30 7 77
15 104 8 27 14 53 14 58 0 4 -33 24 -72 44 -320 160 -536 439 -579 747 -23
167 18 368 111 542 29 54 30 61 15 70 -87 51 -104 66 -124 107 -11 24 -21 64
-21 87 0 37 5 49 36 78 42 39 41 50 -1 24z"/>
<path d="M2550 744 c0 -8 38 -42 115 -102 304 -236 530 -433 634 -554 l76 -88
68 0 c53 0 66 3 60 13 -52 84 -107 151 -208 252 -169 170 -306 267 -575 407
-127 67 -170 85 -170 72z"/>
<path d="M8905 645 c31 -179 97 -375 156 -463 18 -26 58 -77 88 -114 l56 -68
74 0 74 0 -109 112 c-153 158 -242 297 -304 473 -35 101 -45 118 -35 60z"/>
<path d="M2245 322 c6 -6 53 -20 105 -32 194 -42 366 -115 531 -225 l97 -65
119 0 118 1 -85 55 c-108 70 -301 164 -405 197 -88 29 -212 53 -320 62 -38 3
-92 8 -120 11 -35 4 -47 3 -40 -4z"/>
<path d="M5416 256 c-23 -24 -74 -91 -114 -150 l-72 -106 43 0 43 0 49 97 c28
54 54 101 59 104 5 4 6 13 3 20 -2 8 6 29 20 47 35 46 16 40 -31 -12z"/>
</g>
</svg>
